<svg fill="none" height="185" viewBox="0 0 1440 185" width="1440" xmlns="http://www.w3.org/2000/svg" xmlns:xlink="http://www.w3.org/1999/xlink"><linearGradient id="a"><stop offset="0" stop-color="#0052d4"/><stop offset=".5" stop-color="#4364f7"/><stop offset="1" stop-color="#6fb1fc"/></linearGradient><linearGradient id="b" gradientUnits="userSpaceOnUse" x1="-75.5525" x2="1748.71" xlink:href="#a" y1="78.2539" y2="78.2539"/><linearGradient id="c" gradientUnits="userSpaceOnUse" x1="0" x2="1440" xlink:href="#a" y1="104" y2="104"/><linearGradient id="d" gradientUnits="userSpaceOnUse" x1="0" x2="1440" xlink:href="#a" y1="111" y2="111"/><path d="m0 34.3918 48.4195-10.122c76.3365-15.95801 155.3485-13.8204 230.7105 6.2416l37.197 9.9021c67.166 17.8803 138.031 16.3098 204.339-4.5286 67.293-21.148 139.257-22.4451 207.268-3.7358l49.943 13.7387c52.714 14.5012 107.45 20.2585 162.028 17.0427l87.565-5.1593c31.28-1.8434 62.33-6.6241 92.72-14.2792l34.49-8.6882c81.56-20.5442 166.99-20.1815 248.37 1.0546l36.95 9.6416v109.014l-1440 4.486z" fill="url(#b)" fill-opacity=".5"/><path d="m0 73.5 97.9977-24.8226c59.7263-15.1287 122.5533-12.6727 180.9163 7.0721l29.857 10.1008c52.752 17.8464 110.138 16.3038 161.855-4.351 52.472-20.9563 110.752-22.2288 164.089-3.5826l18.429 6.4425c53.904 18.8447 112.669 18.4558 166.319-1.1006 46.923-17.1042 97.925-19.6017 146.295-7.1638l27.988 7.197c58.694 15.093 120.644 11.4424 177.154-10.4403 50.4-19.5132 105.24-24.5749 158.36-14.6156l110.74 20.7641v126h-1440z" fill="url(#c)"/><path d="m0 37 98.0261 20.3925c61.2399 12.7399 124.5269 11.923 185.4179-2.3932 50.615-11.9002 102.973-14.4928 154.516-7.6511l38.754 5.1441c44.652 5.927 89.901 5.793 134.518-.3985l26.066-3.6172c54.713-7.5925 110.332-5.5551 164.343 6.02 66.138 14.1744 134.546 14.017 200.619-.4614l1.92-.4199c50.22-11.0062 101.89-13.9157 153.03-8.6185l50.92 5.2741c34.16 3.5374 68.58 3.5472 102.74.0292l129.13-13.3001v148h-1440z" fill="url(#d)" fill-opacity=".8"/></svg>