<svg fill="none" height="124" viewBox="0 0 128 124" width="128" xmlns="http://www.w3.org/2000/svg">
    <path
        d="m19.0424 114.27c24.8303 12.973 65.0879 12.973 89.9186 0 24.83-12.973 24.833-34.0028 0-46.976-24.8337-12.9733-65.0883-12.9704-89.9216 0-24.83316 12.9703-24.83021 34 .003 46.976z"
        fill="#f5f5f5" />
    <path
        d="m50.4169 103.004c6.6919 3.189 17.5388 3.189 24.216 0 6.6771-3.1898 6.6919-8.3578 0-11.5472-6.6919-3.1895-17.536-3.1895-24.216 0-6.6801 3.1894-6.7037 8.3604 0 11.5472z"
        fill="#ebebeb" />
    <path
        d="m108.346 95.1098-23.9204 13.8062c-.1982.1-.4172.153-.6394.153-.2221 0-.4412-.053-.6393-.153l-29.9009-17.2702c-.0771-.0262-.1441-.0759-.1916-.1421-.0474-.0662-.073-.1456-.073-.2271 0-.0814.0256-.1608.073-.2271.0475-.0662.1145-.1159.1916-.142l23.9207-13.8061c.1982-.1004.4172-.1527.6393-.1527.2222 0 .4412.0523.6394.1527l29.9096 17.2701c.077.0271.143.0776.19.1444s.071.1465.07.228c-.001.0814-.027.1605-.075.2262-.049.0656-.116.1145-.194.1397z"
        fill="#ebebeb" />
    <path
        d="m115.003 19.2164v6.3404s-2.605 1.2197-7.383 1.2197-7.383-1.2226-7.383-1.2226v-6.2017l4.985-14.10729c-.068.44297.192.88595.777 1.23442.428.26401.914.41856 1.416.44998.501.03142 1.003-.06126 1.46-.26983.129-.0505.253-.11073.372-.18015.621-.35733.886-.84756.765-1.31416z"
        fill="#f5f5f5" />
    <path
        d="m115.003 19.2164v6.3404s-2.605 1.2197-7.383 1.2197-7.383-1.2226-7.383-1.2226v-6.2017l4.985-14.10729c-.068.44297.192.88595.777 1.23442.428.26401.914.41856 1.416.44998.501.03142 1.003-.06126 1.46-.26983.129-.0505.253-.11073.372-.18015.621-.35733.886-.84756.765-1.31416z"
        fill="#fff" opacity=".5" />
    <path
        d="m114.43 63.6616c-.428.5638-.971 1.0308-1.592 1.3702-2.888 1.6686-7.569 1.6686-10.454 0-.622-.3391-1.166-.8061-1.595-1.3702-.333-.4432-.53-.9737-.567-1.5268v3.2927c.053 1.0514.771 2.0938 2.162 2.8971 2.885 1.6656 7.566 1.6656 10.454 0 1.441-.8328 2.165-1.9255 2.165-3.0181v-3.2899c-.011.5953-.212 1.1716-.573 1.645z"
        fill="#f5f5f5" />
    <path
        d="m114.43 60.3688c-.428.5639-.971 1.0308-1.592 1.3703-.171.0974-.345.189-.526.2746-2.725 1.2994-6.68 1.2994-9.402 0-.181-.0856-.358-.1772-.526-.2746-.622-.3391-1.166-.8061-1.595-1.3703-.333-.442-.53-.9716-.567-1.5238v3.2898c.037.5532.234 1.0837.567 1.5268.429.5642.973 1.0312 1.595 1.3702 2.885 1.6686 7.566 1.6686 10.454 0 .621-.3394 1.164-.8063 1.592-1.3702.361-.4734.562-1.0496.573-1.6449v-3.2928c-.011.5953-.212 1.1717-.573 1.6449z"
        fill="#ebebeb" />
    <path
        d="m114.43 57.076c-.429.5642-.971 1.032-1.592 1.3732-.171.0975-.345.1861-.526.2746-2.725 1.2994-6.68 1.2994-9.402 0-.181-.0885-.358-.1771-.526-.2746-.622-.3412-1.165-.809-1.595-1.3732-.333-.442-.53-.9716-.567-1.5239v3.2928c.037.5523.234 1.0818.567 1.5239.429.5642.973 1.0312 1.595 1.3702.168.0975.345.189.526.2747 2.722 1.2994 6.677 1.2994 9.402 0 .181-.0857.355-.1772.526-.2747.621-.3394 1.164-.8064 1.592-1.3702.361-.4733.562-1.0496.573-1.645v-3.2927c-.011.5954-.211 1.1718-.573 1.6449z"
        fill="#f5f5f5" />
    <path
        d="m100.222 19.3404v36.2118c.037.5522.234 1.0818.567 1.5238.43.5642.973 1.032 1.595 1.3732.168.0975.345.1861.526.2747.714.3327 1.465.5776 2.238.7294l-1.338-38.1638z"
        fill="#f5f5f5" />
    <path
        d="m111.412 21.2895-1.341 38.1638c.773-.1518 1.525-.3967 2.239-.7295.18-.0885.354-.1771.525-.2746.621-.3412 1.164-.809 1.592-1.3732.362-.4731.563-1.0495.573-1.6449v-36.2148z"
        fill="#f5f5f5" />
    <path
        d="m100.222 19.3404v36.2118c.037.5522.234 1.0818.567 1.5238.43.5642.973 1.032 1.595 1.3732.168.0975.345.1861.526.2747.714.3327 1.465.5776 2.238.7294l-1.338-38.1638z"
        fill="#e0e0e0" />
    <path
        d="m111.412 21.2895-1.341 38.1638c.773-.1518 1.525-.3967 2.239-.7295.18-.0885.354-.1771.525-.2746.621-.3412 1.164-.809 1.592-1.3732.362-.4731.563-1.0495.573-1.6449v-36.2148z"
        fill="#e0e0e0" />
    <path
        d="m103.811 21.2895v37.8005c.437.1512.884.2735 1.337.3662.811.1638 1.636.246 2.463.2451.827-.0006 1.652-.0827 2.463-.2451.454-.0927.901-.215 1.338-.3662v-37.8005z"
        fill="#ebebeb" />
    <path
        d="m109.236 6.46456c-.12.06942-.244.12964-.372.18014-.458.20858-.96.30126-1.461.26984-.502-.03142-.988-.18597-1.416-.44998-.591-.33666-.844-.79145-.777-1.23442l1.701-4.763467c.056-.139294.153-.258399.278-.341673s.272-.12682278.422-.12492833c.151-.00208462.299.04134813.424.12460833.125.08326.223.202465.279.341993l1.684 4.677817c.115.4666-.142.96274-.762 1.32007z"
        fill="#e0e0e0" />
    <path
        d="m112.838 68.3246c-2.48 1.4323-6.284 1.6302-9.137.5906-.159-.0551-.316-.1171-.469-.186l-.213-.0886c-.221-.1004-.434-.2097-.635-.3249-1.391-.8032-2.108-1.8457-2.162-2.897v8.9717c-.053 1.134.665 2.2769 2.162 3.1392.177.1034.363.2009.555.2954.071.0354.148.062.219.0945.124.0531.245.1092.372.1565.127.0472.198.0709.295.1033.098.0325.21.0768.319.1093.11.0325.242.0679.364.1004.121.0325.186.0532.28.0738.095.0207.281.0621.422.0886.08 0 .16.0355.24.0473.159.0295.321.0502.484.0738l.192.0266c.18.0207.36.0354.54.0472h.142c.198.0148.396.0207.591.0237h.094.638.047c.225 0 .449-.0266.674-.0473 1.315-.1117 2.596-.4788 3.771-1.0808.065-.0355.133-.065.198-.1034 1.441-.8328 2.164-1.9255 2.164-3.0181v-9.2139c.018 1.0926-.705 2.1853-2.147 3.0181z"
        fill="#e0e0e0" />
    <path
        d="m23.6851 73.5576c-.8534-.2155-5.4102-2.8084-5.8738-3.1244-.4637-.316-1.3792-.9686-1.3792-2.0938 0-.9952.1034-10.3804.9185-14.9135.2677-1.4102.8211-2.7506 1.6261-3.939.8049-1.1884 1.8445-2.1996 3.0546-2.9714 2.8351-1.7572 5.6849-3.03 8.0858-2.0318s4.5922 2.8321 5.5372 5.047c.945 2.2148 1.5918 6.6505 1.6597 8.3663s0 7.5985 0 8.1212-.0945 1.2019-2.9089 2.9532c-2.8143 1.7512-6.7007 3.8391-7.9027 4.3795-.894.3634-1.8798.4358-2.8173.2067z"
        fill="#37474f" />
    <path
        d="m22.982 47.7351c-.2599.1477-1.01-.2215-1.1222-.4075-.1122-.1861-.1418-1.7955.4193-2.6844s4.0607-2.5279 4.9259-2.4069c.3241.0528.634.1712.9108.3479.2767.1767.5145.408.6987.6798.1063.2274.2244 1.7247 0 2.0318s-1.0247-.1654-1.0956-.2953.2628-1.2256-.2953-1.453c-.5139-.2067-2.9532.8299-3.9455 1.6627-.4311.3632-.4105 1.2639-.3898 1.7099.0207.4459.0236.7383-.1063.815z"
        fill="#455a64" />
    <path
        d="m22.2795 58.3016c.5021-4.8757 1.4058-7.7226 6.1751-9.8459 4.7694-2.1233 6.621-.316 7.2973 1.3112.886 2.2799 1.4973 6.4734 1.5622 8.1301.068 1.7158 0 7.5985 0 8.1212s-.0945 1.2019-2.9088 2.9532c-2.8144 1.7512-6.7008 3.8391-7.9027 4.3795-.8931.3664-1.8789.4418-2.8173.2156-.1885-.0573-.3722-.1294-.5493-.2156-1.4855-1.9077-1.3172-10.5959-.8565-15.0493z"
        fill="#455a64" />
    <path
        d="m33.3983 46.5509c-1.2462-.7294-3.2898-1.2108-6.2902.127-5.363 2.3891-6.7244 5.3807-7.2648 10.6314-.0975.9627-.2422 2.1086-.2953 3.34l-.443-.2687c.062-1.3289.1919-2.4659.2953-3.4936.5906-5.2891 2.1765-8.2128 7.3002-10.4956 2.838-1.2639 4.7015-1.0986 5.9359-.4754.2651.1979.5194.4098.7619.6349z"
        fill="#263238" />
    <path
        d="m33.5839 46.6868c-1.2433-.7295-3.2899-1.2108-6.2873.127-5.3659 2.3891-6.7273 5.3806-7.2678 10.6314-.0974.9627-.2421 2.1085-.2953 3.34l-.443-.2687c.062-1.329.192-2.4659.2953-3.4936.5907-5.2892 2.1765-8.2157 7.3003-10.4956 2.838-1.264 4.7516-1.0543 5.9861-.4341.2482.1843.4858.3825.7117.5936z"
        fill="#455a64" />
    <path
        d="m31.8472 51.3232-1.6213-.9273c-.08-.0449-.1745-.0564-.2629-.0321-.0885.0243-.1638.0826-.2096.1621l-1.6626 2.8911c-.0463.0796-.0593.1743-.0361.2633.0233.0891.0808.1654.1601.2122l1.6006.9332c.0796.0463.1743.0593.2634.036.089-.0232.1653-.0807.2121-.16l1.6833-2.9089c.0231-.039.0381-.0823.0442-.1272s.0032-.0906-.0087-.1344c-.0118-.0437-.0323-.0847-.0602-.1204s-.0627-.0655-.1023-.0876z"
        fill="#263238" />
    <path
        d="m30.1081 54.495 1.5976-2.7554c.0115-.0197.019-.0415.022-.0641.0029-.0227.0013-.0456-.0047-.0677-.0061-.022-.0165-.0425-.0306-.0605-.0141-.0179-.0317-.0329-.0516-.0439l-1.4766-.8387c-.04-.0225-.0873-.0282-.1315-.0161-.0442.0122-.0819.0413-.1048.0811l-1.5799 2.7435c-.0225.04-.0282.0872-.0161.1314.0122.0443.0413.0819.0811.1048l1.45.8476c.0199.0126.0423.0211.0657.0248.0233.0037.0472.0026.0701-.0032.023-.0058.0445-.0162.0633-.0306.0187-.0144.0344-.0324.046-.053z"
        fill="#455a64" />
    <path
        d="m30.4504 53.1778c.0426-.0257.0786-.061.1053-.103.0266-.042.0432-.0897.0483-.1391v-1.3201c0-.0856-.0679-.1122-.1536-.065-.0425.0258-.0786.061-.1052.1031-.0266.042-.0432.0896-.0483.1391v1.3201c0 .0856.0679.1122.1535.0649z"
        fill="#37474f" />
    <path
        d="m29.5945 53.674c.0425-.0266.0784-.0624.105-.1049s.0432-.0904.0485-.1402v-1.3172c0-.0856-.0708-.1151-.1535-.0649-.0429.0254-.0792.0605-.1058.1026-.0267.0421-.0431.0899-.0478.1395v1.3201c.0089.0827.0679.1122.1536.065z"
        fill="#37474f" />
    <path
        d="m24.4886 62.4242s.8033.6615 1.3821 3.154c.5789 2.4925.9273 5.6317.2953 6.0097-.6319.378-1.5445-.4135-1.7719-.6852-.4666-.5581-.3514-6.4822.0945-8.4785z"
        fill="#263238" />
    <path
        d="m24.4888 62.4242s.8032.6615 1.3821 3.154c.5788 2.4925.9272 5.6317.2953 6.0097l9.7454-5.7469c.6379-.378.7944-3.6767.2186-6.1692-.381-1.639-1.0809-2.4186-1.5121-2.7612-.0989-.0764-.2184-.1214-.3431-.1293-.1248-.0079-.249.0217-.3568.085z"
        fill="#37474f" />
    <path
        d="m34.4168 57.2916c.4666.2304 1.2581.8653 1.6154 2.5515.0603.2296.0548.4714-.0157.698-.0704.2266-.2032.4289-.383.5837-.3248.2304-7.3002 4.1965-8.2246 4.7487-.7973.4755-1.2108-.1565-1.385-.5522-.2953-.7029-.5493-1.2492-.7678-1.6686-.1669-.4573-.4274-.8747-.7649-1.2255l9.2936-5.109c.0951-.0559.2025-.0875.3127-.0921.1102-.0047.2199.0178.3193.0655z"
        fill="#263238" />
    <path
        d="m19.8489 61.0598c.1349.5077.2229 1.0267.2628 1.5505 0 .1063-.1447.1624-.1861.1624-.3377-.0679-.6503-.2273-.9036-.4607.0473-.4465.1283-.8887.2421-1.323z"
        fill="#263238" />
    <path
        d="m20.1501 60.6434c0-.1115-.0331-.2206-.0951-.3133-.062-.0928-.15-.1651-.2531-.2078s-.2165-.0538-.3259-.0321c-.1094.0218-.2099.0755-.2888.1544s-.1326.1794-.1544.2888-.0106.2228.0321.3259.115.1912.2078.2531c.0927.062.2018.0951.3133.0951.1496 0 .2931-.0594.3989-.1652s.1652-.2493.1652-.3989z"
        fill="#263238" />
    <path
        d="m27.2056 43.5209c.6172-.059 1.199.0001 1.3466.6173.1477.6172.0945 1.1812 0 1.258-.3127-.0396-.6045-.1783-.8328-.3957-.0709-.1329.2628-1.2256-.2953-1.453-.0684-.0227-.1407-.0317-.2126-.0266z"
        fill="#263238" />
    <path
        d="m33.9773 56.8339c.0955-.0564.2034-.0883.3141-.093.1108-.0046.221.0182.3208.0664.4666.2303 1.2581.8653 1.6154 2.5515.0599.2296.0543.4713-.0161.6978-.0705.2266-.203.4288-.3826.5839-.3248.2303-7.2972 4.1964-8.2216 4.7487-.7973.4754-1.2137-.1565-1.388-.5523-.9657-2.0199-1.7305-2.4127-1.7305-2.4127z"
        fill="#37474f" />
    <path
        d="m32.3051 91.191-7.82-4.5124c-.2042-.1337-.3742-.3134-.4963-.5247-.122-.2114-.1928-.4484-.2066-.6921v.0886c.0133-.2437.0839-.4809.206-.6923s.2924-.3911.4969-.5244l15.7256-9.078c.2172-.1107.4576-.1685.7014-.1685s.4841.0578.7014.1685l7.82 4.5154c.2048.1323.3752.3113.4974.5223s.1926.448.2054.6914v-.0886c-.013.2435-.0831.4806-.2047.692-.1216.2113-.2912.3911-.4952.5247l-15.7256 9.0781c-.2178.1107-.4586.1685-.7029.1685s-.4851-.0578-.7028-.1685z"
        fill="#6fb1fc" />
    <path
        d="m32.3051 91.191-7.82-4.5124c-.2042-.1337-.3742-.3134-.4963-.5247-.122-.2114-.1928-.4484-.2066-.6921v.0886c.0133-.2437.0839-.4809.206-.6923s.2924-.3911.4969-.5244l15.7256-9.078c.2172-.1107.4576-.1685.7014-.1685s.4841.0578.7014.1685l7.82 4.5154c.2048.1323.3752.3113.4974.5223s.1926.448.2054.6914v-.0886c-.013.2435-.0831.4806-.2047.692-.1216.2113-.2912.3911-.4952.5247l-15.7256 9.0781c-.2178.1107-.4586.1685-.7029.1685s-.4851-.0578-.7028-.1685z"
        fill="#000" opacity=".7" />
    <path
        d="m32.9933 79.4138-8.5199 4.9199c-.2046.1333-.3748.313-.4969.5244s-.1927.4486-.206.6923v-.0885c.0138.2436.0845.4806.2066.692.1221.2113.2921.391.4963.5247l7.82 4.5124c.2161.115.458.173.7028.1683z"
        fill="#6fb1fc" />
    <path
        d="m32.9933 79.4138-8.5199 4.9199c-.2046.1333-.3748.313-.4969.5244s-.1927.4486-.206.6923v-.0885c.0138.2436.0845.4806.2066.692.1221.2113.2921.391.4963.5247l7.82 4.5124c.2161.115.458.173.7028.1683z"
        fill="#000" opacity=".7" />
    <path
        d="m24.4823 85.1459 7.817 4.5153c.2183.1092.4589.166.7029.166s.4846-.0568.7029-.166l15.7256-9.081c.3898-.2244.3898-.5906 0-.8091l-7.82-4.5154c-.2172-.1107-.4576-.1685-.7014-.1685s-.4841.0578-.7014.1685l-15.7256 9.078c-.3898.2245-.3898.5877 0 .8122z"
        fill="#6fb1fc" />
    <path
        d="m24.4823 85.1459 7.817 4.5153c.2183.1092.4589.166.7029.166s.4846-.0568.7029-.166l15.7256-9.081c.3898-.2244.3898-.5906 0-.8091l-7.82-4.5154c-.2172-.1107-.4576-.1685-.7014-.1685s-.4841.0578-.7014.1685l-15.7256 9.078c-.3898.2245-.3898.5877 0 .8122z"
        fill="#000" opacity=".5" />
    <path
        d="m24.4819 83.6604v.7501l8.1153 4.6867c.1236.071.2636.1084.4061.1084s.2825-.0374.4061-.1084l16.0209-9.2523v-.7737l-16.4285 7.9735z"
        fill="#6fb1fc" />
    <path
        d="m32.3021 88.1758-7.8199-4.5154c-.2049-.133-.3754-.3125-.4975-.524-.1222-.2114-.1926-.4488-.2054-.6927v-1.4441c.0128-.2439.0832-.4813.2054-.6927.1221-.2115.2926-.3911.4975-.524l15.7256-9.081c.2172-.1107.4575-.1685.7014-.1685.2438 0 .4841.0578.7013.1685l7.82 4.5154c.2049.1329.3754.3125.4975.524.1222.2114.1926.4488.2054.6927v1.447c-.0148.2386-.0863.4703-.2085.6757-.1222.2055-.2917.3788-.4944.5056l-15.7256 9.1046c-.2165.1121-.4565.1714-.7003.1729s-.4845-.0547-.7025-.164z"
        fill="#6fb1fc" />
    <path
        d="m32.3021 88.1758-7.8199-4.5154c-.2049-.133-.3754-.3125-.4975-.524-.1222-.2114-.1926-.4488-.2054-.6927v-1.4441c.0128-.2439.0832-.4813.2054-.6927.1221-.2115.2926-.3911.4975-.524l15.7256-9.081c.2172-.1107.4575-.1685.7014-.1685.2438 0 .4841.0578.7013.1685l7.82 4.5154c.2049.1329.3754.3125.4975.524.1222.2114.1926.4488.2054.6927v1.447c-.0148.2386-.0863.4703-.2085.6757-.1222.2055-.2917.3788-.4944.5056l-15.7256 9.1046c-.2165.1121-.4565.1714-.7003.1729s-.4845-.0547-.7025-.164z"
        fill="#000" opacity=".6" />
    <path
        d="m32.9933 74.8629-8.5199 4.92c-.2049.133-.3754.3125-.4975.524-.1222.2114-.1926.4488-.2054.6927v1.4441c.0128.2439.0832.4813.2054.6927.1221.2115.2926.3911.4975.524l7.82 4.5154c.2149.1154.456.1734.6999.1683z"
        fill="#6fb1fc" />
    <path
        d="m32.9933 74.8629-8.5199 4.92c-.2049.133-.3754.3125-.4975.524-.1222.2114-.1926.4488-.2054.6927v1.4441c.0128.2439.0832.4813.2054.6927.1221.2115.2926.3911.4975.524l7.82 4.5154c.2149.1154.456.1734.6999.1683z"
        fill="#000" opacity=".7" />
    <path
        d="m24.4823 80.5921 7.817 4.5154c.2178.1107.4586.1684.7029.1684s.4851-.0577.7029-.1684l15.7256-9.0781c.3898-.2244.3898-.5906 0-.8121l-7.82-4.5154c-.2172-.1107-.4576-.1685-.7014-.1685s-.4841.0578-.7014.1685l-15.7256 9.081c-.3898.2244-.3898.5877 0 .8092z"
        fill="#6fb1fc" />
    <path
        d="m24.4823 80.5921 7.817 4.5154c.2178.1107.4586.1684.7029.1684s.4851-.0577.7029-.1684l15.7256-9.0781c.3898-.2244.3898-.5906 0-.8121l-7.82-4.5154c-.2172-.1107-.4576-.1685-.7014-.1685s-.4841.0578-.7014.1685l-15.7256 9.081c-.3898.2244-.3898.5877 0 .8092z"
        fill="#000" opacity=".5" />
    <path
        d="m35.3882 77.004c-.8653.502-.8653 1.3082 0 1.8043.4865.2447 1.0236.3721 1.5681.3721.5446 0 1.0817-.1274 1.5682-.3721.8653-.4961.8653-1.3023 0-1.8043-.4861-.2461-1.0233-.3742-1.5682-.3742-.5448 0-1.082.1281-1.5681.3742z"
        fill="#6fb1fc" />
    <path
        d="m48.1575 77.5326c-.0803.0525-.147.1231-.1947.2063-.0477.0831-.0751.1764-.08.2721 0 .1772.124.251.2747.1654.0802-.0525.1469-.1232.1946-.2063.0478-.0831.0752-.1764.08-.2721 0-.1772-.124-.2511-.2746-.1654z"
        fill="#6fb1fc" />
    <path
        d="m48.1575 78.5928c-.0803.0524-.147.1231-.1947.2062-.0477.0832-.0751.1764-.08.2722 0 .1772.124.251.2747.1654.0812-.0514.1487-.1218.1966-.2052.0478-.0834.0746-.1772.078-.2733 0-.1771-.124-.251-.2746-.1653z"
        fill="#6fb1fc" />
    <path
        d="m29.027 97.1594c-.0361-.0001-.0717-.0092-.1034-.0266l-7.5778-4.4032c-.1962-.1137-.3591-.2769-.4723-.4733-.1132-.1965-.1728-.4192-.1728-.646 0-.2267.0596-.4494.1728-.6459.1132-.1964.2761-.3596.4723-.4733l5.5549-3.2071c.0472-.024.1017-.0289.1523-.0139.0507.015.0937.0489.1202.0947.0265.0457.0344.0999.0222.1513-.0123.0515-.0437.0962-.088.1252l-5.5519 3.1983c-.1322.0784-.2417.1899-.3178.3235s-.1161.2847-.1161.4384.04.3048.1161.4384.1856.2451.3178.3235l7.5778 4.3973c.0255.0133.0478.0319.0656.0545s.0306.0487.0376.0766c.0069.0279.0079.0569.0029.0852-.0051.0283-.0161.0552-.0323.079-.0177.032-.0439.0585-.0756.0768-.0318.0182-.0679.0274-.1045.0266z"
        fill="#6fb1fc" />
    <path
        d="m38.5185 92.9068-1.6419-6.5915c-.0235-.0909-.0541-.1797-.0916-.2658l.4784-.0679-1.0424-.5906c-.2188-.1189-.4658-.1759-.7145-.165s-.4897.0894-.6972.227l-6.8365 3.9572c-.4694.3074-.8597.7211-1.1394 1.2075-.2796.4864-.4407 1.0318-.4701 1.5921v7.9262c0 .632.1535 1.066.4695 1.217l.9805.567-.2363-.626.0532-.021c1.1251-.537 1.5327-1.5178 1.8693-2.4894l1.3024-3.7653c.3367-.9716 1.1813-2.0849 1.8723-2.4895s1.6774 0 2.1854.8859l.6556 1.1459c.2001.3637.5018.6612.8682.8564l.9982.5906-.254-.3957c.2076.0005.4115-.0546.5906-.1595.6822-.4075 1.0484-1.5415.8003-2.5456z"
        fill="#6fb1fc" />
    <path
        d="m38.5185 92.9068-1.6419-6.5915c-.0235-.0909-.0541-.1797-.0916-.2658l.4784-.0679-1.0424-.5906c-.2188-.1189-.4658-.1759-.7145-.165s-.4897.0894-.6972.227l-6.8365 3.9572c-.4694.3074-.8597.7211-1.1394 1.2075-.2796.4864-.4407 1.0318-.4701 1.5921v7.9262c0 .632.1535 1.066.4695 1.217l.9805.567-.2363-.626.0532-.021c1.1251-.537 1.5327-1.5178 1.8693-2.4894l1.3024-3.7653c.3367-.9716 1.1813-2.0849 1.8723-2.4895s1.6774 0 2.1854.8859l.6556 1.1459c.2001.3637.5018.6612.8682.8564l.9982.5906-.254-.3957c.2076.0005.4115-.0546.5906-.1595.6822-.4075 1.0484-1.5415.8003-2.5456z"
        fill="#000" opacity=".7" />
    <path
        d="m36.7847 86.0495.4784-.0679-1.0424-.5906c-.2188-.1189-.4658-.1759-.7145-.165s-.4897.0894-.6972.227l-6.8365 3.9572c-.3819.238-.7082.5553-.9569.9303l1.6272.9922 8.3221-4.7014-.0798-.316c-.0263-.0911-.0599-.18-.1004-.2658z"
        fill="#6fb1fc" />
    <path
        d="m36.7847 86.0495.4784-.0679-1.0424-.5906c-.2188-.1189-.4658-.1759-.7145-.165s-.4897.0894-.6972.227l-6.8365 3.9572c-.3819.238-.7082.5553-.9569.9303l1.6272.9922 8.3221-4.7014-.0798-.316c-.0263-.0911-.0599-.18-.1004-.2658z"
        fill="#000" opacity=".5" />
    <path
        d="m38.7606 96.0667c-.6999.4045-1.6833 0-2.1942-.886l-.6527-1.1458c-.5109-.886-1.4766-1.2906-2.1883-.886s-1.5356 1.515-1.8723 2.4895l-1.2994 3.7624c-.3366.9712-.7471 1.9522-1.8723 2.4892-.8505.408-1.261-.106-1.261-1.134v-7.9319c.0305-.56.1923-1.105.4724-1.5908.2801-.4859.6707-.899 1.14-1.2059l6.8484-3.972c.1845-.1292.3989-.2092.623-.2324.224-.0231.4502.0113.6573.1.207.0887.3879.2288.5256.407.1378.1782.2277.3887.2614.6114l1.6419 6.5944c.2422.9864-.127 2.1263-.8298 2.5309z"
        fill="#6fb1fc" />
    <path
        d="m38.7606 96.0667c-.6999.4045-1.6833 0-2.1942-.886l-.6527-1.1458c-.5109-.886-1.4766-1.2906-2.1883-.886s-1.5356 1.515-1.8723 2.4895l-1.2994 3.7624c-.3366.9712-.7471 1.9522-1.8723 2.4892-.8505.408-1.261-.106-1.261-1.134v-7.9319c.0305-.56.1923-1.105.4724-1.5908.2801-.4859.6707-.899 1.14-1.2059l6.8484-3.972c.1845-.1292.3989-.2092.623-.2324.224-.0231.4502.0113.6573.1.207.0887.3879.2288.5256.407.1378.1782.2277.3887.2614.6114l1.6419 6.5944c.2422.9864-.127 2.1263-.8298 2.5309z"
        fill="#000" opacity=".6" />
    <path
        d="m36.1059 88.3382.1713.9716.7589-.4843.1684.9716-.7561.4873.1713.9716-.756.4843-.1713-.9716-.756.4873-.1713-.9746.756-.4843-.1712-.9716z"
        fill="#263238" />
    <path
        d="m36.3246 88.4534.1713.9716.756-.4843.1713.9716-.756.4872.1713.9716-.756.4844-.1713-.9716-.756.4843-.1713-.9716.756-.4843-.1713-.9716z"
        fill="#6fb1fc" />
    <g fill="#263238">
        <path
            d="m30.3769 91.7787c.0202.1368.0034.2766-.0485.4049-.0519.1282-.1371.2402-.2469.3245-.2096.1329-.4164.0236-.4636-.2451-.0212-.1369-.0049-.277.0471-.4054.052-.1285.1378-.2404.2482-.324.2067-.1329.4223-.0237.4637.2451z" />
        <path
            d="m30.7189 93.7218c.0212.137.0049.2771-.0471.4055s-.1378.2403-.2482.324c-.2097.1329-.4164.0236-.4637-.2422-.0215-.1369-.0053-.2771.0467-.4056s.1379-.2404.2486-.3238c.2068-.1359.4164-.0266.4637.2421z" />
        <path
            d="m31.3039 92.263c.0214.1369.0053.2771-.0467.4056s-.138.2404-.2487.3238c-.2096.1359-.4164.0266-.4636-.2421-.0215-.137-.0054-.2772.0466-.4057.0521-.1284.138-.2404.2487-.3238.2097-.1329.4164-.0266.4637.2422z" />
        <path
            d="m29.7919 93.2346c.0215.1369.0054.2771-.0466.4056-.0521.1285-.138.2404-.2487.3238-.2097.1359-.4164.0266-.4637-.2421-.0211-.137-.0048-.2771.0471-.4055.052-.1284.1378-.2403.2483-.324.2096-.1329.4164-.0266.4636.2422z" />
        <path
            d="m30.3913 91.7875c.0211.1369.0048.277-.0471.4055-.052.1284-.1378.2403-.2483.324-.2096.1329-.4164.0265-.4636-.2422-.0215-.1369-.0054-.2771.0466-.4056.0521-.1285.138-.2404.2487-.3238.2097-.1359.4076-.0266.4637.2421z" />
        <path
            d="m30.734 93.7307c.0215.137.0054.2772-.0466.4056-.052.1285-.138.2404-.2487.3239-.2097.1358-.4164.0265-.4636-.2422-.0215-.1369-.0054-.2771.0466-.4056s.138-.2404.2487-.3238c.2097-.1329.4164-.0266.4636.2421z" />
        <path
            d="m31.3183 92.2748c.0209.1365.0045.2761-.0475.404s-.1376.2393-.2478.3225c-.2067.1358-.4164.0266-.4637-.2422-.0205-.1369-.0039-.2768.048-.4051.052-.1283.1374-.2403.2473-.3243.2097-.1329.4164-.0236.4637.2451z" />
        <path
            d="m29.8064 93.2464c.0211.1369.0048.277-.0472.4054-.0519.1284-.1377.2404-.2482.324-.2067.1329-.4164.0236-.4636-.2451-.0202-.1369-.0035-.2766.0484-.4049.0519-.1282.1372-.2403.2469-.3245.2097-.1329.4164-.0237.4637.2451z" />
        <path
            d="m30.4057 91.7964c.0215.1369.0054.2771-.0467.4056-.052.1285-.1379.2404-.2486.3238-.2067.1358-.4164.0266-.4637-.2422-.0205-.1368-.0039-.2767.048-.405.052-.1283.1374-.2403.2474-.3244.2096-.1329.4163-.0266.4636.2422z" />
        <path
            d="m30.7485 93.7425c.0209.1365.0045.2761-.0475.404s-.1376.2393-.2478.3225c-.2068.1359-.4164.0266-.4637-.2422-.0205-.1368-.0039-.2767.048-.405s.1374-.2403.2473-.3244c.2097-.1329.4164-.0236.4637.2451z" />
        <path
            d="m31.3366 92.2837c.0205.1368.0039.2767-.048.405-.052.1283-.1374.2403-.2473.3244-.2097.1329-.4164.0236-.4637-.2422-.0215-.1369-.0054-.2771.0467-.4056.052-.1285.1379-.2404.2486-.3238.2067-.1358.4164-.0266.4637.2422z" />
        <path
            d="m29.8244 93.2552c.0205.1369.0039.2768-.048.4051-.052.1283-.1374.2403-.2474.3244-.2096.1329-.4163.0266-.4636-.2422-.0215-.1369-.0054-.2771.0467-.4056.052-.1285.1379-.2404.2486-.3238.2067-.1359.4164-.0266.4637.2421z" />
        <path
            d="m30.4236 91.8082c.0205.1369.0039.2768-.048.4051-.052.1283-.1374.2403-.2474.3243-.2096.1329-.4164.0237-.4636-.2451-.0209-.1364-.0045-.276.0475-.4039s.1376-.2394.2478-.3226c.2067-.1358.4164-.0177.4637.2422z" />
        <path
            d="m30.7663 93.7514c.0205.1369.0039.2768-.048.4051-.052.1283-.1374.2403-.2474.3243-.2096.1329-.4164.0266-.4636-.2421-.0215-.137-.0054-.2772.0466-.4056.0521-.1285.138-.2404.2487-.3239.2067-.1358.4164-.0265.4637.2422z" />
        <path
            d="m31.351 92.2925c.0215.137.0053.2772-.0467.4056-.052.1285-.1379.2404-.2486.3239-.2097.1358-.4164.0265-.4637-.2422-.0211-.1369-.0049-.277.0471-.4054s.1378-.2404.2482-.324c.2097-.1329.4164-.0266.4637.2421z" />
        <path
            d="m29.8393 93.2641c.0215.1369.0053.2771-.0467.4056s-.138.2404-.2486.3238c-.2097.1359-.4164.0266-.4637-.2421-.0212-.1369-.0049-.277.0471-.4054.052-.1285.1378-.2404.2482-.324.2097-.1329.4164-.0266.4637.2421z" />
        <path
            d="m30.4386 91.8171c.0212.1369.0049.277-.0471.4054s-.1377.2404-.2482.324c-.2097.1329-.4164.0266-.4636-.2422-.0215-.1369-.0054-.2771.0466-.4056.052-.1284.138-.2404.2487-.3238.2096-.1358.4164-.0266.4636.2422z" />
        <path
            d="m30.7812 93.7602c.0214.137.0053.2772-.0467.4057-.052.1284-.138.2404-.2487.3238-.2096.1358-.4164.0266-.4636-.2422-.0212-.1369-.0049-.277.0471-.4054s.1378-.2404.2482-.324c.2097-.1329.4164-.0266.4637.2421z" />
        <path
            d="m31.3661 92.3043c.0209.1369.0044.2769-.0475.4053-.052.1283-.1376.2403-.2478.3242-.2097.1329-.4164.0236-.4636-.2451-.0212-.137-.0049-.2771.0471-.4055s.1377-.2403.2482-.324c.2096-.1329.4164-.0236.4636.2451z" />
        <path
            d="m29.8538 93.2759c.0211.1369.0049.277-.0471.4054-.052.1285-.1378.2404-.2482.3241-.2068.1328-.4164.0236-.4637-.2452-.0203-.1364-.0036-.2758.0484-.4036.0519-.1277.1372-.2393.2469-.3228.2097-.1359.4164-.0266.4637.2421z" />
        <path
            d="m30.4535 91.8259c.0215.137.0054.2772-.0466.4056-.052.1285-.138.2404-.2487.3239-.2067.1358-.4164.0265-.4636-.2422-.0205-.1369-.004-.2768.048-.4051.0519-.1283.1373-.2403.2473-.3243.2097-.1329.4164-.0355.4636.2421z" />
        <path
            d="m30.7963 93.772c.0209.1369.0044.2769-.0475.4053-.052.1283-.1376.2403-.2478.3242-.2067.1329-.4164.0236-.4636-.2451-.0206-.1369-.004-.2768.048-.4051.0519-.1283.1373-.2403.2473-.3244.2097-.1329.4164-.0236.4636.2451z" />
        <path
            d="m31.3805 92.3132c.0212.1369.0049.277-.0471.4054s-.1377.2404-.2482.324c-.2067.1329-.4164.0266-.4636-.2421-.0209-.1369-.0044-.2769.0475-.4053.052-.1283.1376-.2403.2478-.3242.2097-.1358.4164-.0265.4636.2422z" />
        <path
            d="m29.8717 93.2848c.0205.1369.004.2767-.048.405-.0519.1283-.1373.2403-.2473.3244-.2097.1329-.4164.0266-.4636-.2422-.0215-.1369-.0054-.2771.0466-.4056.052-.1284.138-.2404.2487-.3238.2067-.1358.4164-.0177.4636.2422z" />
        <path
            d="m30.4709 91.8436c.0205.1369.0039.2768-.048.4051-.052.1283-.1374.2403-.2474.3244-.2096.1329-.4164.0236-.4636-.2422-.0215-.1369-.0054-.2771.0466-.4056.0521-.1285.138-.2404.2487-.3238.2067-.1418.4164-.0325.4637.2421z" />
        <path
            d="m30.8136 93.7809c.0205.1369.004.2768-.048.4051-.0519.1283-.1373.2403-.2473.3243-.2097.1329-.4164.0266-.4636-.2421-.0215-.1369-.0054-.2771.0466-.4056s.138-.2404.2487-.3238c.2067-.1359.4164-.0266.4636.2421z" />
        <path
            d="m31.3983 92.3221c.0209.1369.0045.2768-.0475.4052s-.1376.2403-.2478.3242c-.2096.1358-.4164.0266-.4636-.2422-.0212-.1369-.0049-.277.0471-.4054s.1377-.2404.2482-.324c.2067-.1329.4164-.0266.4636.2422z" />
        <path
            d="m29.8866 93.2936c.0215.137.0054.2772-.0466.4057-.052.1284-.138.2404-.2487.3238-.2097.1358-.4164.0266-.4636-.2422-.0212-.1369-.0049-.277.0471-.4054s.1377-.2404.2482-.324c.2097-.1329.4164-.0266.4636.2421z" />
        <path
            d="m30.486 91.8436c.0215.137.0053.2772-.0467.4056-.052.1285-.1379.2405-.2486.3239-.2097.1358-.4164.0265-.4637-.2422-.0215-.1369-.0053-.2771.0467-.4056s.1379-.2404.2486-.3238c.2097-.1329.4164-.0236.4637.2421z" />
        <path
            d="m30.8285 93.7898c.0215.1369.0054.2771-.0466.4056s-.138.2404-.2487.3238c-.2097.1359-.4164.0266-.4636-.2421-.0212-.137-.0049-.2771.0471-.4055s.1377-.2404.2482-.324c.2097-.1329.4164-.0266.4636.2422z" />
        <path
            d="m31.4133 92.3339c.0212.1369.0049.277-.0471.4054s-.1378.2404-.2482.324c-.2097.1329-.4164.0236-.4637-.2451-.0209-.1365-.0045-.2761.0475-.404s.1377-.2393.2479-.3225c.2096-.1358.4164-.0266.4636.2422z" />
        <path
            d="m29.901 93.3202c.0212.1369.0049.277-.0471.4055-.052.1284-.1377.2403-.2482.324-.2067.1329-.4164.0236-.4636-.2422-.0215-.1369-.0054-.2771.0466-.4056s.138-.2404.2487-.3238c.2097-.1506.4164-.0532.4636.2421z" />
        <path
            d="m30.5004 91.8584c.0209.1365.0045.2761-.0475.404s-.1376.2393-.2478.3225c-.2097.1358-.4164.0266-.4637-.2422-.0211-.1369-.0049-.277.0471-.4054s.1378-.2404.2483-.324c.2096-.1329.4163-.0236.4636.2451z" />
        <path
            d="m30.843 93.8016c.0212.1369.0049.277-.0471.4054s-.1378.2404-.2482.324c-.2067.1329-.4164.0236-.4637-.2451-.0209-.1365-.0045-.2761.0475-.404s.1376-.2393.2478-.3225c.2097-.1358.4164-.0266.4637.2422z" />
        <path
            d="m31.4279 92.3427c.0212.1369.0049.277-.0471.4054-.052.1285-.1378.2404-.2482.3241-.2067.1328-.4164.0265-.4637-.2422-.0208-.1369-.0044-.2769.0476-.4053.052-.1283.1375-.2403.2478-.3241.2096-.1359.4163-.0266.4636.2421z" />
        <path
            d="m29.9157 93.3202c.0215.1369.0054.2771-.0467.4056-.052.1285-.1379.2404-.2486.3238-.2067.1359-.4135.0266-.4637-.2421-.0208-.1369-.0044-.2769.0476-.4053.0519-.1283.1375-.2403.2477-.3242.2097-.1417.4164-.0324.4637.2422z" />
        <path
            d="m30.5153 91.8673c.0212.1369.0049.277-.0471.4054s-.1378.2404-.2482.324c-.2067.1329-.4164.0236-.4637-.2422-.0208-.1369-.0044-.2769.0476-.4052.052-.1284.1375-.2404.2478-.3242.2096-.1358.4164-.0266.4636.2422z" />
        <path
            d="m30.858 93.8105c.0212.1369.0049.277-.0471.4054s-.1377.2404-.2482.324c-.2067.1329-.4134.0266-.4607-.2422-.0215-.1369-.0053-.2771.0467-.4056s.1379-.2404.2486-.3238c.2068-.1359.4135-.0266.4607.2422z" />
        <path
            d="m31.4457 92.3516c.0208.1369.0044.2769-.0475.4052-.052.1284-.1376.2404-.2478.3242-.2097.1359-.4164.0266-.4637-.2421-.0211-.1369-.0048-.277.0471-.4055.052-.1284.1378-.2403.2483-.324.2067-.1329.4164-.0236.4636.2422z" />
        <path
            d="m29.9335 93.3202c.0203.1365.0036.2758-.0484.4036-.0519.1278-.1372.2393-.2469.3229-.2097.1358-.4164.0266-.4637-.2422-.0211-.1369-.0048-.277.0471-.4054.052-.1284.1378-.2404.2483-.324.2067-.127.4164-.0177.4636.2451z" />
        <path
            d="m30.5331 91.8761c.0209.1369.0044.2769-.0475.4053-.052.1283-.1376.2403-.2478.3241-.2097.1359-.4164.0266-.4637-.2421-.0211-.1369-.0048-.277.0472-.4054.0519-.1285.1377-.2404.2482-.324.2067-.1329.4164-.0266.4636.2421z" />
        <path
            d="m30.8759 93.8193c.0208.1369.0044.2769-.0476.4052-.0519.1284-.1375.2404-.2477.3242-.2097.1359-.4164.0266-.4637-.2421-.0211-.1369-.0049-.277.0471-.4054.052-.1285.1378-.2404.2482-.3241.2186-.1328.4164-.0236.4637.2422z" />
        <path
            d="m31.4601 92.3634c.0212.1369.0049.277-.0471.4054s-.1378.2404-.2482.324c-.2097.1329-.4164.0237-.4637-.2421-.0214-.137-.0053-.2772.0467-.4056.052-.1285.138-.2404.2487-.3239.2244-.1358.4164-.0265.4636.2422z" />
        <path
            d="m29.9484 93.335c.0212.1369.0049.277-.0471.4054s-.1378.2404-.2482.324c-.2097.1329-.4164.0236-.4637-.2421-.0215-.137-.0053-.2772.0467-.4056.052-.1285.1379-.2405.2486-.3239.2097-.1358.4164-.0266.4637.2422z" />
        <path
            d="m30.5483 91.8879c.0208.1369.0044.2769-.0476.4053s-.1376.2403-.2478.3242c-.2096.1329-.4164.0236-.4636-.2451-.0212-.1369-.0049-.277.0471-.4055.052-.1284.1377-.2403.2482-.324.2097-.1329.4164-.0236.4637.2451z" />
        <path
            d="m30.8903 93.8311c.0211.1369.0049.277-.0471.4054-.052.1285-.1378.2404-.2482.324-.2097.1329-.4164.0237-.4637-.2421-.0215-.1369-.0053-.2771.0467-.4056s.1379-.2404.2486-.3238c.2038-.1359.4164-.0266.4637.2421z" />
        <path
            d="m31.4753 92.3723c.0215.1369.0053.2771-.0467.4056-.052.1284-.138.2404-.2487.3238-.2067.1358-.4164.0266-.4636-.2422-.0208-.1369-.0044-.2769.0476-.4052.0519-.1284.1375-.2404.2477-.3242.2097-.1359.4164-.0266.4637.2422z" />
        <path
            d="m29.9633 93.3438c.0215.137.0054.2772-.0466.4057-.0521.1284-.138.2404-.2487.3238-.2067.1358-.4164.0266-.4636-.2422-.0206-.1369-.004-.2767.048-.405.0519-.1283.1373-.2403.2473-.3244.2096-.1329.4164-.0266.4636.2421z" />
        <path d="m36.1061 88.3382.2185.1152-.756.4873-.2185-.1152z" />
        <path d="m35.5211 89.7971.2186.1152-.756.4843-.2186-.1152z" />
        <path d="m36.4954 89.425-.0413-.2274.5818-.3721.2156.1152z" />
        <path d="m34.7651 90.2814.2186.1152.1713.9716-.2186-.1122z" />
        <path d="m35.8638 91.7403.2186.1152-.1713-.9716-.1772.1151z" />
    </g>
    <path
        d="m30.5483 91.8879c.0208.1369.0044.2769-.0476.4053s-.1376.2403-.2478.3242c-.2096.1329-.4164.0236-.4636-.2451-.0212-.1369-.0049-.277.0471-.4055.052-.1284.1377-.2403.2482-.324.2097-.1329.4164-.0236.4637.2451z"
        fill="#6fb1fc" />
    <path
        d="m30.8903 93.8311c.0211.1369.0049.277-.0471.4054-.052.1285-.1378.2404-.2482.324-.2097.1329-.4164.0237-.4637-.2421-.0215-.1369-.0053-.2771.0467-.4056s.1379-.2404.2486-.3238c.2038-.1359.4164-.0266.4637.2421z"
        fill="#6fb1fc" />
    <path
        d="m31.4753 92.3723c.0215.1369.0053.2771-.0467.4056-.052.1284-.138.2404-.2487.3238-.2067.1358-.4164.0266-.4636-.2422-.0208-.1369-.0044-.2769.0476-.4052.0519-.1284.1375-.2404.2477-.3242.2097-.1359.4164-.0266.4637.2422z"
        fill="#6fb1fc" />
    <path
        d="m29.9633 93.3438c.0215.137.0054.2772-.0466.4057-.0521.1284-.138.2404-.2487.3238-.2067.1358-.4164.0266-.4636-.2422-.0206-.1369-.004-.2767.048-.405.0519-.1283.1373-.2403.2473-.3244.2096-.1329.4164-.0266.4636.2421z"
        fill="#6fb1fc" />
    <path
        d="m37.8126 9.35868-3.1746 1.83092c.0176-.139.0264-.2791.0266-.4193v-.91844c0-1.63605-1.1488-2.30052-2.5634-1.47658-.6116.37466-1.1337.87865-1.5297 1.47658-.2333-2.06722-1.8458-2.82323-3.8067-1.69216-2.1204 1.22556-3.8391 4.2024-3.8391 6.6476v1.3762c-.0135.5492.0975 1.0944.3249 1.5947l-2.6372 1.5209c-.4142.2704-.7589.6346-1.0061 1.063-.2473.4284-.3903.9089-.4174 1.4028 0 .9067.6379 1.2758 1.4235.821l17.1992-9.9285c.4142-.2705.7589-.6346 1.0061-1.063.2473-.4284.3903-.909.4174-1.4029 0-.91846-.632-1.2876-1.4235-.83282z"
        fill="#f0f0f0" />
    <path d="m103.771 91.8761-.59-.3337.419-.189s.328.0886.337.1034c-.003.0762-.011.1522-.024.2274z"
        fill="#e0e0e0" />
    <path d="m103.771 91.8761-.59-.3337.419-.189s.328.0886.337.1034c-.003.0762-.011.1522-.024.2274z"
        fill="#6fb1fc" />
    <path d="m103.771 91.8761-.59-.3337.419-.189s.328.0886.337.1034c-.003.0762-.011.1522-.024.2274z"
        fill="#fff" opacity=".1" />
    <path
        d="m81.7935 102.948c.2618.132.5512.201.8446.201.2935 0 .5828-.069.8446-.201l18.9413-10.9272-28.3501-16.3723-.6615-.381-18.9416 10.9267c-.4637.2688-.4637.7088 0 .9746z"
        fill="#6fb1fc" />
    <path
        d="m81.7935 102.948c.2618.132.5512.201.8446.201.2935 0 .5828-.069.8446-.201l18.9413-10.9272-28.3501-16.3723-.6615-.381-18.9416 10.9267c-.4637.2688-.4637.7088 0 .9746z"
        fill="#fff" opacity=".8" />
    <path
        d="m88.9081 82.2872 6.6062 3.8007 4.2762-2.4688 4.9645 2.8764v3.5762c0 .4342-.487 1.0514-.665.951-.327.0792-.646.192-.951.3366-.496.2825-.957.6235-1.373 1.0159l-15.1791-8.762z"
        fill="#e0e0e0" />
    <path
        d="m88.9081 82.2872 6.6062 3.8007 4.2762-2.4688 4.9645 2.8764v3.5762c0 .4342-.487 1.0514-.665.951-.327.0792-.646.192-.951.3366-.496.2825-.957.6235-1.373 1.0159l-15.1791-8.762z"
        fill="#6fb1fc" />
    <path
        d="m88.9081 82.2872 6.6062 3.8007 4.2762-2.4688 4.9645 2.8764v3.5762c0 .4342-.487 1.0514-.665.951-.327.0792-.646.192-.951.3366-.496.2825-.957.6235-1.373 1.0159l-15.1791-8.762z"
        fill="#fff" opacity=".1" />
    <path
        d="m83.492 102.945 1.1429-.662 17.1491-9.8989c.013-.2239.094-.4383.233-.6143.203-.2691.458-.4942.75-.6615.245-.1498.523-.2361.81-.251.191-.0026.378.0587.531.1742.223-.4383.332-.9259.316-1.4175h.65c0 .8859-.296 1.7955-.659 2.0022l-.328.192c-.186.1063-.333.1122-.333 0v-.1742c0-.1949-.296-.1861-.662.0265-.366.2127-.658.5375-.658.7324v.1772c0 .1004-.254.3249-.561.5021l-16.5854 9.5768-1.7956 1.034c-.2599.134-.549.202-.8416.198v-.75c.2919.012.582-.053.8416-.186z"
        fill="#6fb1fc" />
    <path
        d="m83.492 102.945 1.1429-.662 17.1491-9.8989c.013-.2239.094-.4383.233-.6143.203-.2691.458-.4942.75-.6615.245-.1498.523-.2361.81-.251.191-.0026.378.0587.531.1742.223-.4383.332-.9259.316-1.4175h.65c0 .8859-.296 1.7955-.659 2.0022l-.328.192c-.186.1063-.333.1122-.333 0v-.1742c0-.1949-.296-.1861-.662.0265-.366.2127-.658.5375-.658.7324v.1772c0 .1004-.254.3249-.561.5021l-16.5854 9.5768-1.7956 1.034c-.2599.134-.549.202-.8416.198v-.75c.2919.012.582-.053.8416-.186z"
        fill="#fff" opacity=".6" />
    <path
        d="m54.1167 86.6667v.7649c.0097.1021.0459.1999.1049.2838.0591.0839.1389.151.2318.1946l25.536 14.742 1.7926 1.034c.2599.134.5491.202.8417.198v-.75c-.2946.007-.5857-.064-.8447-.204l-1.1399-.659-26.1857-15.1229c-.0933-.0439-.1734-.1114-.2325-.1958-.059-.0845-.095-.1829-.1042-.2856z"
        fill="#6fb1fc" />
    <path
        d="m54.1167 86.6667v.7649c.0097.1021.0459.1999.1049.2838.0591.0839.1389.151.2318.1946l25.536 14.742 1.7926 1.034c.2599.134.5491.202.8417.198v-.75c-.2946.007-.5857-.064-.8447-.204l-1.1399-.659-26.1857-15.1229c-.0933-.0439-.1734-.1114-.2325-.1958-.059-.0845-.095-.1829-.1042-.2856z"
        fill="#fff" opacity=".1" />
    <path
        d="m82.6387 98.0925v4.3825c.1954.006.389-.04.5611-.133l2.0672-1.199 15.826-9.1369v-4.5715z"
        fill="#fff" />
    <path
        d="m54.9404 82.6475v3.3695c.0104.1951.0666.3851.1641.5544s.2335.3133.397.4202l24.5113 14.1454 2.0673 1.199c.1722.093.3656.139.5611.133v-3.9128z"
        fill="#f0f0f0" />
    <path
        d="m101.105 92.0001c.016-.2242.099-.4384.239-.6142.204-.2675.459-.4915.75-.6586.243-.1519.521-.2394.807-.2539.192-.0015.379.0596.534.1742v-4.5627l-2.324 1.3437z"
        fill="#455a64" />
    <path
        d="m102.035 90.7657c-.269.159-.504.3698-.691.6202-.14.1758-.223.39-.239.6143v-4.3589h.927z"
        fill="#f5f5f5" />
    <path
        d="m74.0684 70.2855 28.3506 16.3724v.3809c0 .2097.295.2954.658.0768.364-.2185.662-.4725.662-.8357l.035-.3603-28.8906-16.6795-.1151-.0679c-.0302.0533-.0474.113-.0502.1742v.1772c.0059.2185-.2865.5581-.6497.7619z"
        fill="#6fb1fc" />
    <path
        d="m74.0684 70.2855 28.3506 16.3724v.3809c0 .2097.295.2954.658.0768.364-.2185.662-.4725.662-.8357l.035-.3603-28.8906-16.6795-.1151-.0679c-.0302.0533-.0474.113-.0502.1742v.1772c.0059.2185-.2865.5581-.6497.7619z"
        fill="#fff" opacity=".6" />
    <path
        d="m83.4919 97.6053 18.5221-10.6964c.234-.1211.449-.2215.541-.1742l-.121-.068-28.3509-16.3723-.3307-.192c-.1486-.0423-.3046-.0523-.4574-.0294s-.2989.0783-.4286.1623l-18.3776 10.6137c-.4636.2687-.4636.7058 0 .9745l27.3287 15.7818c.2599.1302.5465.1979.8372.1979s.5773-.0677.8372-.1979z"
        fill="#6fb1fc" />
    <path
        d="m83.4919 97.6053 18.5221-10.6964c.234-.1211.449-.2215.541-.1742l-.121-.068-28.3509-16.3723-.3307-.192c-.1486-.0423-.3046-.0523-.4574-.0294s-.2989.0783-.4286.1623l-18.3776 10.6137c-.4636.2687-.4636.7058 0 .9745l27.3287 15.7818c.2599.1302.5465.1979.8372.1979s.5773-.0677.8372-.1979z"
        fill="#fff" opacity=".8" />
    <path
        d="m74.7739 69.181.1152.0679 28.8909 16.6884c.015-.0308.036-.058.062-.0797l.097-.0561.21-.1182.257-.1506c.05-.0331.11-.0482.169-.0429.06.0054.116.0309.159.0725.012.0081.023.0181.032.0295.035.0355.064.0764.086.1211.031.0511.057.1056.077.1624.022.0608.041.1229.056.186.018.0739.029.1447.044.2215.008.0439.013.0883.015.1329v.1093.251-.8121c-.031-.2668-.123-.5229-.269-.7479-.147-.225-.344-.4128-.576-.5486l-27.3313-15.7817c-.2251-.1329-.478-.2119-.7387-.2309-.2608-.0189-.5224.0227-.7644.1216l-.3456.2008-.1476.0827c-.0427.031-.0764.0728-.0975.1211z"
        fill="#6fb1fc" />
    <path
        d="m74.7739 69.181.1152.0679 28.8909 16.6884c.015-.0308.036-.058.062-.0797l.097-.0561.21-.1182.257-.1506c.05-.0331.11-.0482.169-.0429.06.0054.116.0309.159.0725.012.0081.023.0181.032.0295.035.0355.064.0764.086.1211.031.0511.057.1056.077.1624.022.0608.041.1229.056.186.018.0739.029.1447.044.2215.008.0439.013.0883.015.1329v.1093.251-.8121c-.031-.2668-.123-.5229-.269-.7479-.147-.225-.344-.4128-.576-.5486l-27.3313-15.7817c-.2251-.1329-.478-.2119-.7387-.2309-.2608-.0189-.5224.0227-.7644.1216l-.3456.2008-.1476.0827c-.0427.031-.0764.0728-.0975.1211z"
        fill="#fff" opacity=".8" />
    <path
        d="m83.4919 97.6082 1.1459-.6644 13.174-7.6015 4.2052-2.4275c.295-.1772.544-.2392.558-.1476v.189c0 .2126.296.2126.659 0 .135-.0586.253-.1497.343-.2652.091-.1154.152-.2517.177-.3964v-.2067c-.005-.0461.002-.0925.019-.1356s.044-.0816.078-.1124l.098-.0561.209-.1182.257-.1506c.05-.0331.11-.0483.169-.0429.06.0054.116.0309.159.0724.012.0082.023.0182.032.0296.022.023.041.0488.057.0768.012.0128.022.0278.029.0443.031.0511.057.1056.077.1624.022.0607.041.1229.056.186.018.0739.029.1447.044.2215.008.0439.013.0883.015.1329v.1093.251 2.8469h-.65v-2.8469c0-.0679 0-.1358 0-.2008l-.017-.1624c.001-.0049.001-.01 0-.0148-.059.5168-.553.9775-.981 1.2197-.238.15-.51.2355-.791.248-.217.0028-.427-.0739-.591-.2156l-.059.0325-.112.0679-16.5852 9.5772-1.7749 1.0454c-.2557.1308-.5397.1968-.8269.192v-.7502c.287.0061.5711-.0588.8269-.189z"
        fill="#6fb1fc" />
    <path
        d="m83.4919 97.6082 1.1459-.6644 13.174-7.6015 4.2052-2.4275c.295-.1772.544-.2392.558-.1476v.189c0 .2126.296.2126.659 0 .135-.0586.253-.1497.343-.2652.091-.1154.152-.2517.177-.3964v-.2067c-.005-.0461.002-.0925.019-.1356s.044-.0816.078-.1124l.098-.0561.209-.1182.257-.1506c.05-.0331.11-.0483.169-.0429.06.0054.116.0309.159.0724.012.0082.023.0182.032.0296.022.023.041.0488.057.0768.012.0128.022.0278.029.0443.031.0511.057.1056.077.1624.022.0607.041.1229.056.186.018.0739.029.1447.044.2215.008.0439.013.0883.015.1329v.1093.251 2.8469h-.65v-2.8469c0-.0679 0-.1358 0-.2008l-.017-.1624c.001-.0049.001-.01 0-.0148-.059.5168-.553.9775-.981 1.2197-.238.15-.51.2355-.791.248-.217.0028-.427-.0739-.591-.2156l-.059.0325-.112.0679-16.5852 9.5772-1.7749 1.0454c-.2557.1308-.5397.1968-.8269.192v-.7502c.287.0061.5711-.0588.8269-.189z"
        fill="#fff" opacity=".6" />
    <path
        d="m54.1167 81.3274v.7708c.0092.1026.0452.201.1042.2855.0591.0844.1392.152.2325.1958l25.536 14.7423 1.7926 1.0365c.2599.1345.5491.2025.8417.1979v-.7501c-.2941.0064-.5849-.0627-.8447-.2008l-1.1399-.6586-26.1857-15.1232c-.0953-.0451-.1768-.1149-.236-.2021-.0592-.0873-.094-.1888-.1007-.294z"
        fill="#6fb1fc" />
    <path
        d="m54.1167 81.3274v.7708c.0092.1026.0452.201.1042.2855.0591.0844.1392.152.2325.1958l25.536 14.7423 1.7926 1.0365c.2599.1345.5491.2025.8417.1979v-.7501c-.2941.0064-.5849-.0627-.8447-.2008l-1.1399-.6586-26.1857-15.1232c-.0953-.0451-.1768-.1149-.236-.2021-.0592-.0873-.094-.1888-.1007-.294z"
        fill="#fff" opacity=".1" />
    <path
        d="m72.8424 70.2353c.1297-.084.2758-.1394.4286-.1623s.3088-.0129.4574.0294l.3307.192c.3633-.2127.6557-.5523.6557-.762v-.1771c.0028-.0613.02-.121.0502-.1743.0231-.048.0588-.0888.1033-.1181l.1477-.0827.3455-.2008c.242-.099.5036-.1406.7644-.1216.2608.0189.5136.0979.7388.2308l27.3313 15.7818.03.0177-19.2874 11.1364c-.1742.0889-.367.1353-.5626.1353-.1955 0-.3883-.0464-.5625-.1353l-27.5088-16.0386z"
        fill="#263238" />
    <path
        d="m86.4833 94.2062-.7294-.4194c.1963-.0683.4072-.0835.6113-.0443.1949.1004.1181.4637.1181.4637z"
        fill="#6fb1fc" />
    <path
        d="m86.4833 94.2062-.7294-.4194c.1963-.0683.4072-.0835.6113-.0443.1949.1004.1181.4637.1181.4637z"
        fill="#000" opacity=".7" />
    <path
        d="m86.9853 93.7543c-.0829-.0899-.1836-.1617-.2957-.2107-.1121-.0491-.2331-.0745-.3554-.0745-.1224 0-.2434.0254-.3555.0745-.112.049-.2127.1208-.2957.2107-.7117.6527-.7472 1.2994-1.0425 1.2906-.2953-.0089-.2953-5.2124-.2953-5.2124l2.8085 2.6018z"
        fill="#6fb1fc" />
    <path
        d="m86.9853 93.7543c-.0829-.0899-.1836-.1617-.2957-.2107-.1121-.0491-.2331-.0745-.3554-.0745-.1224 0-.2434.0254-.3555.0745-.112.049-.2127.1208-.2957.2107-.7117.6527-.7472 1.2994-1.0425 1.2906-.2953-.0089-.2953-5.2124-.2953-5.2124l2.8085 2.6018z"
        fill="#000" opacity=".7" />
    <path
        d="m57.6249 74.8393-.0473-.0266.4489-.2599 19.3374-11.1629 28.1761 18.2328c.464.2688.546.6586.183.8653l-.658.381-18.0738 10.4512-.1299-.0945z"
        fill="#6fb1fc" />
    <path
        d="m57.6249 74.8393-.0473-.0266.4489-.2599 19.3374-11.1629 28.1761 18.2328c.464.2688.546.6586.183.8653l-.658.381-18.0738 10.4512-.1299-.0945z"
        fill="#000" opacity=".5" />
    <path d="m84.5782 87.3696 1.3998-.2953v5.611c-.8446.3603-1.382.6969-1.4765 1.4027z"
        fill="#455a64" />
    <path
        d="m86.5958 92.7591 17.9052-10.3361c.164-.1066.301-.2504.399-.4197.098-.1694.154-.3594.165-.5548v-5.5254l-18.0794 10.5281s-.2156.7826-.8564 1.0277-.1506.4961-.1506.4961v4.7251c.5522-.0798.6172.059.6172.059z"
        fill="#f0f0f0" />
    <path
        d="m84.9445 87.1776c.1861-.1063.3337-.1122.3337 0v.1743c0 .1949.2954.186.6615-.0266.3662-.2127.6616-.5375.6616-.7324v-.1772c0-.1004.251-.3248.5581-.502l-29.1301-16.6914-.4518.2599c-.0626.0665-.102.1514-.1122.2422v.1772c0 .1949-.2953.5227-.6586.7324-.3632.2096-.6615.2214-.6615.0265v-.1772c0-.1004-.1477-.0915-.3307.0148z"
        fill="#6fb1fc" />
    <path
        d="m84.9445 87.1776c.1861-.1063.3337-.1122.3337 0v.1743c0 .1949.2954.186.6615-.0266.3662-.2127.6616-.5375.6616-.7324v-.1772c0-.1004.251-.3248.5581-.502l-29.1301-16.6914-.4518.2599c-.0626.0665-.102.1514-.1122.2422v.1772c0 .1949-.2953.5227-.6586.7324-.3632.2096-.6615.2214-.6615.0265v-.1772c0-.1004-.1477-.0915-.3307.0148z"
        fill="#000" opacity=".6" />
    <path
        d="m57.6249 69.497-.0473-.0266.4489-.2599 19.3374-11.1629 28.1761 16.2719c.464.2688.546.6556.183.8653l-.658.378-18.0797 10.8884z"
        fill="#6fb1fc" />
    <path
        d="m57.6249 69.497-.0473-.0266.4489-.2599 19.3374-11.1629 28.1761 16.2719c.464.2688.546.6556.183.8653l-.658.378-18.0797 10.8884z"
        fill="#000" opacity=".5" />
    <path
        d="m56.1396 70.3032 29.1241 16.8154-1.0188.7973-29.0149-16.7504c.0707-.2154.2057-.404.3868-.5404z"
        fill="#6fb1fc" />
    <path
        d="m56.1396 70.3032 29.1241 16.8154-1.0188.7973-29.0149-16.7504c.0707-.2154.2057-.404.3868-.5404z"
        fill="#000" opacity=".5" />
    <path
        d="m55.3273 78.6814c-.0179-.0112-.0347-.024-.0502-.0384-.0134-.0066-.0246-.0169-.0325-.0296-.0238-.0232-.0437-.0501-.059-.0797-.0131-.0112-.0232-.0254-.0296-.0413-.0316-.0507-.0564-.1053-.0738-.1625-.0245-.0613-.0443-.1245-.059-.189-.0178-.0708-.0296-.1417-.0414-.2185-.0102-.0436-.0162-.0881-.0177-.1329v-.1093c0-.0797 0-.1653 0-.251v-4.8107c-.0053-.5051.0869-1.0065.2717-1.4766l29.0149 16.7504.1211 7.5365-29.012-16.7563z"
        fill="#6fb1fc" />
    <path
        d="m55.3273 78.6814c-.0179-.0112-.0347-.024-.0502-.0384-.0134-.0066-.0246-.0169-.0325-.0296-.0238-.0232-.0437-.0501-.059-.0797-.0131-.0112-.0232-.0254-.0296-.0413-.0316-.0507-.0564-.1053-.0738-.1625-.0245-.0613-.0443-.1245-.059-.189-.0178-.0708-.0296-.1417-.0414-.2185-.0102-.0436-.0162-.0881-.0177-.1329v-.1093c0-.0797 0-.1653 0-.251v-4.8107c-.0053-.5051.0869-1.0065.2717-1.4766l29.0149 16.7504.1211 7.5365-29.012-16.7563z"
        fill="#000" opacity=".7" />
    <path
        d="m84.2304 87.9041s-22.8516-10.6934-24.9307-11.6739c-1.3732-.6467-2.0465.7117-1.7217 2.1175.2953 1.2285 1.4973 2.4954 1.4973 2.4954l-3.7358-2.1588c-.0179-.0111-.0347-.024-.0502-.0384-.0134-.0066-.0246-.0168-.0325-.0295-.0238-.0232-.0437-.0502-.059-.0797-.0131-.0112-.0232-.0254-.0296-.0414-.0316-.0507-.0564-.1053-.0738-.1624-.0245-.0614-.0443-.1246-.059-.189-.0178-.0709-.0296-.1418-.0414-.2185-.0102-.0437-.0162-.0882-.0177-.1329v-.1093c0-.0797 0-.1654 0-.251v-4.8137c-.0053-.5051.0869-1.0065.2717-1.4766z"
        fill="#263238" opacity=".79" />
    <path
        d="m83.9614 89.3718h.6497c-.0152-.4912.0924-.9784.3131-1.4175.1545.1146.3421.1758.5345.1743.286-.0146.5635-.102.8062-.254.2923-.1662.5475-.3903.7501-.6586.0154-.0185.0293-.0382.0414-.059.1147-.1635.1812-.3558.1919-.5552l17.1487-9.8991.591-.3396.744-.4282c.065-.0295.12-.0763.16-.1351.041-.0588.064-.1275.068-.1986v-.759c-.004.0724-.026.1425-.067.2029-.04.0604-.095.1087-.161.1397l-1.97 1.134-16.5816 9.5772c-.3101.1771-.5611.4016-.5611.502v.1772c-.0185.1123-.0723.2157-.1536.2953-.1423.1712-.3144.3152-.5079.4253-.3662.2126-.6615.2214-.6615.0265v-.1742c0-.1034-.1447-.0945-.3308 0l-.3278.192c-.381.2362-.6763 1.1369-.6763 2.0317z"
        fill="#6fb1fc" />
    <path
        d="m84.6109 89.3718v4.8107.2008l.0148.1625c-.0014.0048-.0014.0099 0 .0147.059-.5168.5522-.9775.9804-1.2196.2387-.1504.5126-.2359.7944-.2481.2167-.0028.4268.0739.5907.2156l.0561-.0325.1152-.0679 16.5815-9.5772.954-.5492.272-.1595.803-.4637c.053-.033.097-.0787.128-.1328s.048-.115.05-.1772v.7589c-.003.0588-.019.1162-.048.1676-.028.0513-.069.0951-.118.1277-.094.0561-.195.1093-.295.1713l-.186.1093-.319.1831c-.071.0443-.136.0827-.198.1152-.062.0324-.097.059-.139.0797l-.245.1447-13.174 7.6015-4.2053 2.4275c-.2954.1772-.5405.2392-.5582.1476-.001-.0108-.001-.0217 0-.0325v-.1683c0-.2126-.2953-.2126-.6586 0-.1346.0586-.2526.1497-.3434.2651-.0907.1155-.1513.2517-.1763.3964v.2067c.0043.0461-.0022.0926-.0192.1357-.0169.0431-.0437.0816-.0783.1124l-.0974.0561-.2067.1181-.257.1507c-.0498.0331-.1095.0482-.1691.0429-.0596-.0054-.1156-.031-.1587-.0725-.0134-.0066-.0246-.0168-.0325-.0295-.0237-.0222-.0437-.0481-.059-.0768-.0115-.0125-.0214-.0264-.0296-.0413-.0316-.0507-.0564-.1053-.0738-.1625-.0249-.0602-.0447-.1224-.059-.186-.0178-.0738-.0296-.1447-.0414-.2215-.0104-.0436-.0164-.0881-.0177-.1329 0-.0354 0-.0679 0-.1093 0-.0413 0-.1653 0-.251v-4.8107z"
        fill="#6fb1fc" />
    <g fill="#000" opacity=".6">
        <path
            d="m83.9614 89.3718h.6497c-.0152-.4912.0924-.9784.3131-1.4175.1545.1146.3421.1758.5345.1743.286-.0146.5635-.102.8062-.254.2923-.1662.5475-.3903.7501-.6586.0154-.0185.0293-.0382.0414-.059.1147-.1635.1812-.3558.1919-.5552l17.1487-9.8991.591-.3396.744-.4282c.065-.0295.12-.0763.16-.1351.041-.0588.064-.1275.068-.1986v-.759c-.004.0724-.026.1425-.067.2029-.04.0604-.095.1087-.161.1397l-1.97 1.134-16.5816 9.5772c-.3101.1771-.5611.4016-.5611.502v.1772c-.0185.1123-.0723.2157-.1536.2953-.1423.1712-.3144.3152-.5079.4253-.3662.2126-.6615.2214-.6615.0265v-.1742c0-.1034-.1447-.0945-.3308 0l-.3278.192c-.381.2362-.6763 1.1369-.6763 2.0317z"
            opacity=".6" />
        <path
            d="m84.6109 89.3718v4.8107.2008l.0148.1625c-.0014.0048-.0014.0099 0 .0147.059-.5168.5522-.9775.9804-1.2196.2387-.1504.5126-.2359.7944-.2481.2167-.0028.4268.0739.5907.2156l.0561-.0325.1152-.0679 16.5815-9.5771.954-.5493.272-.1595.803-.4637c.053-.033.097-.0786.128-.1327s.048-.115.05-.1773v.7589c-.003.0588-.019.1162-.048.1676-.028.0513-.069.0951-.118.1277-.094.0562-.195.1093-.295.1713l-.186.1093-.319.1831c-.071.0443-.136.0827-.198.1152s-.097.059-.139.0797l-.245.1447-13.174 7.6015-4.2053 2.4275c-.2954.1772-.5405.2392-.5582.1476-.001-.0108-.001-.0216 0-.0325v-.1683c0-.2126-.2953-.2126-.6586 0-.1346.0586-.2526.1497-.3434.2651-.0907.1155-.1513.2517-.1763.3964v.2067c.0043.0461-.0022.0926-.0192.1357-.0169.0431-.0437.0816-.0783.1124l-.0974.0561-.2067.1181-.257.1507c-.0498.0331-.1095.0482-.1691.0429-.0596-.0054-.1156-.031-.1587-.0725-.0134-.0066-.0246-.0168-.0325-.0295-.0237-.0222-.0437-.0481-.059-.0768-.0115-.0125-.0214-.0264-.0296-.0413-.0316-.0507-.0564-.1053-.0738-.1624-.0249-.0603-.0447-.1225-.059-.1861-.0178-.0738-.0296-.1447-.0414-.2215-.0104-.0436-.0164-.0881-.0177-.1329 0-.0354 0-.0679 0-.1093 0-.0413 0-.1653 0-.251v-4.8107z"
            opacity=".6" />
    </g>
    <path
        d="m55.2153 71.1508 27.5767 15.9235 20.844-12.0342c.068-.0228.127-.0664.169-.1247s.064-.1283.064-.2001c0-.0719-.022-.1419-.064-.2002s-.101-.1019-.169-.1247l-27.2878-15.7581-18.3096 10.5782-.4519.2629c-.0611.0659-.0994.1498-.1092.2392v.1772c0 .1949-.2954.5227-.6586.7324-.0184.0121-.0383.0221-.0591.0295l-.6083-.3514-.2953.1653-.0414.0207-.2126.124c-.1808.1367-.3158.3252-.3869.5405z"
        fill="#263238" />
    <path
        d="m102.097 75.1582-.83-.443.756-.1801c.073.0849.119.1894.132.3003.013.111-.007.2233-.058.3228z"
        fill="#e0e0e0" />
    <path
        d="m102.097 75.1582-.83-.443.756-.1801c.073.0849.119.1894.132.3003.013.111-.007.2233-.058.3228z"
        fill="#e0e0e0" opacity=".5" />
    <path
        d="m80.1046 86.2326c.2613.1326.5501.2016.8431.2016s.5818-.069.8431-.2016l18.9412-10.9267-28.35-17.9228-.6644-.3839-18.9387 12.4742c-.4637.2687-.4637.7058 0 .9745z"
        fill="#6fb1fc" />
    <path
        d="m87.2156 64.0159 14.3114 9.6982-7.7051-5.9063 4.2762-2.4689 4.9729 2.8794v5.1355c0 .4371-.487 1.0543-.664.9539-.328.0792-.647.1921-.951.3367-.497.2824-.958.6235-1.373 1.0159l-15.1768-10.3155z"
        fill="#6fb1fc" />
    <path
        d="m87.2156 64.0159 14.3114 9.6982-7.7051-5.9063 4.2762-2.4689 4.9729 2.8794v5.1355c0 .4371-.487 1.0543-.664.9539-.328.0792-.647.1921-.951.3367-.497.2824-.958.6235-1.373 1.0159l-15.1768-10.3155z"
        fill="#000" opacity=".2" />
    <path
        d="m80.9463 79.8213v5.93c.1962.0043.3904-.0414.564-.1329l2.0673-1.199 15.829-9.1371v-6.1249z"
        fill="#fff" />
    <path
        d="m53.2485 64.3792v4.9229c.0109.195.0673.3847.1647.554.0975.1692.2332.3133.3964.4205l24.5113 14.1457 2.0673 1.199c.1727.0912.3658.1369.5611.1329v-5.4693z"
        fill="#f0f0f0" />
    <path
        d="m99.4155 75.2823c.0145-.224.0969-.4383.2363-.6143.2018-.269.4572-.4933.7502-.6585.244-.152.522-.2394.809-.254.186-.0189.373.0248.532.124v-6.0658l-2.3245 1.3437z"
        fill="#455a64" />
    <path
        d="m100.343 74.0449c-.268.162-.5025.3734-.6912.6231-.1394.176-.2218.3903-.2363.6143v-5.9064h.9245z"
        fill="#f5f5f5" />
    <path
        d="m72.3789 52.0231 28.3501 16.3753v.378c0 .2126.296.2953.659.0797.363-.2155.664-.4754.664-.8387l.036-.3603-28.8911-16.6795-.1181-.0679c-.0297.0544-.0459.1152-.0472.1772v.1742c.0029.2097-.2895.5493-.6527.762z"
        fill="#6fb1fc" />
    <path
        d="m72.3789 52.0231 28.3501 16.3753v.378c0 .2126.296.2953.659.0797.363-.2155.664-.4754.664-.8387l.036-.3603-28.8911-16.6795-.1181-.0679c-.0297.0544-.0459.1152-.0472.1772v.1742c.0029.2097-.2895.5493-.6527.762z"
        fill="#000" opacity=".2" />
    <path
        d="m81.7908 79.334 18.5342-10.6934c.236-.1241.452-.2245.54-.1772l-.121-.065-28.3502-16.3753-.3337-.189c-.1484-.0441-.3046-.055-.4577-.032-.1531.0229-.2993.0792-.4282.1649l-18.3953 10.6107c-.4637.2688-.4637.7088 0 .9746l27.3316 15.7817c.2605.1316.5483.2002.8402.2002.2918 0 .5796-.0686.8401-.2002z"
        fill="#6fb1fc" />
    <path
        d="m73.082 50.9097.1182.068 28.8968 16.6795c.015-.0308.036-.058.062-.0798l.097-.0531.207-.1211.257-.1506c.05-.0326.11-.0474.169-.0421.06.0054.115.0306.159.0716.012.0083.023.0182.032.0295.034.0368.064.0774.089.1211.03.0513.055.1058.074.1625.023.0618.043.1249.059.189.015.0708.029.1417.041.2185.009.0448.015.0902.018.1358v.1064.2539-.8121c-.03-.2675-.122-.5243-.268-.7499-.147-.2256-.344-.4138-.577-.5495l-27.3313-15.7817c-.2253-.1327-.4783-.2113-.7391-.2297-.2608-.0185-.5223.0237-.7641.1234l-.3455.2008-.1447.0856c-.0475.0301-.0854.0731-.1093.124z"
        fill="#6fb1fc" />
    <path
        d="m81.7909 86.2326 1.1428-.6615 17.1493-9.902c.015-.2239.097-.438.236-.6142.203-.2682.458-.4923.75-.6586.244-.1497.521-.2361.806-.251.193-.004.382.0574.535.1742.22-.4403.328-.9283.313-1.4205h.65c0 .886-.296 1.7956-.659 2.0053l-.328.1919c-.186.1063-.33.1122-.33 0v-.1742c0-.1949-.296-.1861-.665.0236s-.658.5404-.658.7353v.1743c0 .1004-.252.3248-.562.505l-16.5846 9.5771-1.7955 1.0366c-.2599.1344-.5491.2024-.8417.1978v-.7501c.2921.01.5819-.0551.8417-.189z"
        fill="#6fb1fc" />
    <path
        d="m81.7909 86.2326 1.1428-.6615 17.1493-9.902c.015-.2239.097-.438.236-.6142.203-.2682.458-.4923.75-.6586.244-.1497.521-.2361.806-.251.193-.004.382.0574.535.1742.22-.4403.328-.9283.313-1.4205h.65c0 .886-.296 1.7956-.659 2.0053l-.328.1919c-.186.1063-.33.1122-.33 0v-.1742c0-.1949-.296-.1861-.665.0236s-.658.5404-.658.7353v.1743c0 .1004-.252.3248-.562.505l-16.5846 9.5771-1.7955 1.0366c-.2599.1344-.5491.2024-.8417.1978v-.7501c.2921.01.5819-.0551.8417-.189z"
        fill="#000" opacity=".4" />
    <path
        d="m81.7849 79.337 1.1429-.6616 13.1741-7.6014 4.2231-2.4334c.295-.1743.543-.2363.561-.1447v.1919c0 .2097.295.2097.659 0 .135-.0588.253-.1504.344-.2664.09-.116.151-.2528.175-.398v-.2068c-.004-.046.003-.0925.02-.1356.016-.0431.043-.0816.078-.1124l.097-.0532.207-.1211.257-.1506c.05-.0326.109-.0474.169-.0421.059.0054.115.0306.159.0717.012.0082.023.0181.032.0295.023.024.043.0508.059.0797.011.0128.021.0266.03.0414.03.0513.055.1057.074.1624.023.0618.043.1249.059.189.014.0709.029.1417.041.2185.009.0449.015.0902.018.1359v.1063.254 4.3943h-.65v-4.3707c0-.0679 0-.1388 0-.2038l-.015-.1624c-.059.5168-.552.9775-.983 1.2197-.237.1509-.511.2364-.792.248-.216.0028-.426-.0739-.59-.2156l-.056.0325-.115.0679-16.5855 9.5772-1.7955 1.0365c-.2567.1312-.5417.1972-.8299.192v-.7501c.2916-.002.5779-.0772.8328-.2185z"
        fill="#6fb1fc" />
    <path
        d="m81.7849 79.337 1.1429-.6616 13.1741-7.6014 4.2231-2.4334c.295-.1743.543-.2363.561-.1447v.1919c0 .2097.295.2097.659 0 .135-.0588.253-.1504.344-.2664.09-.116.151-.2528.175-.398v-.2068c-.004-.046.003-.0925.02-.1356.016-.0431.043-.0816.078-.1124l.097-.0532.207-.1211.257-.1506c.05-.0326.109-.0474.169-.0421.059.0054.115.0306.159.0717.012.0082.023.0181.032.0295.023.024.043.0508.059.0797.011.0128.021.0266.03.0414.03.0513.055.1057.074.1624.023.0618.043.1249.059.189.014.0709.029.1417.041.2185.009.0449.015.0902.018.1359v.1063.254 4.3943h-.65v-4.3707c0-.0679 0-.1388 0-.2038l-.015-.1624c-.059.5168-.552.9775-.983 1.2197-.237.1509-.511.2364-.792.248-.216.0028-.426-.0739-.59-.2156l-.056.0325-.115.0679-16.5855 9.5772-1.7955 1.0365c-.2567.1312-.5417.1972-.8299.192v-.7501c.2916-.002.5779-.0772.8328-.2185z"
        fill="#000" opacity=".4" />
    <path
        d="m52.4272 63.0561v.762c.009.1023.0445.2005.103.2849s.1381.1521.2308.1964l25.539 14.7422 1.7925 1.0366c.2591.134.5472.2019.8387.1979v-.7501c-.2931.0064-.583-.0627-.8416-.2009l-1.1399-.6585-26.171-15.1143c-.0993-.0414-.1848-.1099-.247-.1976-.0621-.0878-.0983-.1912-.1045-.2986z"
        fill="#6fb1fc" />
    <path
        d="m52.4272 63.0561v.762c.009.1023.0445.2005.103.2849s.1381.1521.2308.1964l25.539 14.7422 1.7925 1.0366c.2591.134.5472.2019.8387.1979v-.7501c-.2931.0064-.583-.0627-.8416-.2009l-1.1399-.6585-26.171-15.1143c-.0993-.0414-.1848-.1099-.247-.1976-.0621-.0878-.0983-.1912-.1045-.2986z"
        fill="#000" opacity=".2" />
    <path
        d="m52.4272 69.9488v.762c.009.1023.0445.2005.103.2849s.1381.1521.2308.1964l25.5508 14.7452 1.7926 1.0366c.259.1339.5471.2019.8387.1978v-.7501c-.2932.0065-.5831-.0627-.8417-.2008l-1.1399-.6585-26.1828-15.1173c-.0993-.0414-.1848-.1099-.247-.1976-.0621-.0878-.0983-.1912-.1045-.2986z"
        fill="#6fb1fc" />
    <path
        d="m52.4272 69.9488v.762c.009.1023.0445.2005.103.2849s.1381.1521.2308.1964l25.5508 14.7452 1.7926 1.0366c.259.1339.5471.2019.8387.1978v-.7501c-.2932.0065-.5831-.0627-.8417-.2008l-1.1399-.6585-26.1828-15.1173c-.0993-.0414-.1848-.1099-.247-.1976-.0621-.0878-.0983-.1912-.1045-.2986z"
        fill="#000" opacity=".2" />
    <path d="m64.2227 43.1547-2.711 4.8314 3.9514 2.1027 2.8763-4.2821z" fill="#ffa8a7" />
    <path
        d="m73.8408 32.2723c-1.5061-.2569-3.786-.3249-5.2684 2.2178-1.4825 2.5427-4.6779 8.8182-4.6779 8.8182s1.8664 2.4157 4.5686 2.8557l4.415-7.0049z"
        fill="#6fb1fc" />
    <path d="m70.2822 91.442h-3.3725v5.7734h3.3725z" fill="#ffa8a7" />
    <path d="m60.5194 90.0363-3.3726.1152-.1683-6.1101 3.3696-.1152z" fill="#ffa8a7" />
    <path
        d="m66.9099 95.5499v-.4814c-.3219.1388-1.072 3.0004-2.4098 4.2201-1.0631.9714-2.5132 2.0904-2.8823 3.1714-.3839 1.125 2.02 1.749 3.0122 1.571 1.1547-.203 3.157-1.016 3.659-1.772.5021-.756.7383-1.863 1.1458-2.4152.4076-.5523 1.3496-1.1813 1.5711-1.8103.1211-.3514-.0236-1.1193-.1919-1.7719-.1565-.5907-.3278-1.2522-.5316-1.1961v.3662c-.2451.2717-.9214.5405-1.6863.57-.4931.0236-1.6892-.0738-1.6862-.4518z"
        fill="#263238" />
    <path
        d="m57.1114 89.112c-.1742 0-.316.2539-.7029.6703-.5771.5831-1.2479 1.0653-1.9845 1.4264-1.264.635-3.7121 1.6065-4.8284 2.1115-.694.3131-.6615 1.1518.0561 1.6302s2.4482.821 4.5301.3544c1.1311-.254 2.6077-1.2994 3.5438-1.2433.9362.0561 2.6815.0443 3.3696-.4312.6881-.4754.4135-1.4766.2185-2.3625-.2126-.9509-.5168-2.4069-.8327-2.3419v.2953c-.4046.6143-2.4689.8653-3.3608.4135z"
        fill="#263238" />
    <path
        d="m83.8673 56.3318c.7383 5.2123-.2569 6.2016-5.2094 11.2043-2.6578 2.6844-6.9547 6.621-6.9547 6.621s.062 1.6656.0945 5.3984c.0325 3.2869-1.3407 13.9833-1.3407 13.9833s-2.2385.942-3.7742-.0355c0 0-.694-7.9588-1.069-12.108-.508-5.611-.7738-8.4401-.4873-9.648.254-1.0661 5.295-7.4331 6.4586-9.2168l-10.7141 6.2253c.2077 1.5773.3123 3.1665.313 4.7575-.1181 4.4623-.6674 13.3749-.6674 13.3749s-2.4511 1.0957-3.6678.1506c0 0-3.0861-19.4909-3.0861-21.0915 0-2.4305 10.5546-9.6864 12.5539-11.3756 1.1399-.9627 2.4098-2.0052 2.4098-2.0052z"
        fill="#455a64" />
    <path
        d="m71.5842 62.5334c-1.1269-.9124-1.9752-2.1229-2.4482-3.4936.0591.8944.1864 1.7829.381 2.6579.2953 1.1576-8.6469 7.058-8.6469 7.058z"
        fill="#37474f" />
    <path
        d="m77.5394 22.9506c.6033-2.5741-.9944-5.1499-3.5685-5.7532-2.5741-.6032-5.1498.9944-5.7531 3.5685s.9944 5.1499 3.5685 5.7531c2.5741.6033 5.1498-.9943 5.7531-3.5684z"
        fill="#263238" />
    <path
        d="m82.937 35.1723s1.1813.9686 1.1813 4.0281v6.6063l-.1684 11.1098c-2.3625 2.5722-12.9939 1.5977-15.6252-4.0134 0 0 .0207-11.727.0207-14.3553s1.4766-6.0393 5.4929-6.2755l5.2035 1.2108z"
        fill="#263238" />
    <path
        d="m81.1529 25.2615s-.7766 3.6442-1.0867 4.2437c-.2068.3695-.5487.6447-.9539.7678l.0532-2.5634z"
        fill="#263238" />
    <path
        d="m80.1783 20.0403c.2696-.0303.5426.001.7984.0915s.4877.238.6782.4312c.6379.6526.2805 2.6962-.5139 4.6985l-1.4618.1683z"
        fill="#263238" />
    <path
        d="m79.2539 25.4298c.2953.1742.7117-.3869 1.072-.7649s1.5416-.8859 2.1293.3456c.5876 1.2314-.5198 2.9324-1.4471 3.2248-1.6006.5021-1.8428-.5257-1.8428-.5257l-.121 5.7735c-1.3792 1.5416-6.0954 1.1813-5.2065-.1536v-1.7719s-1.45.2215-2.1558.1123c-1.1813-.1831-1.9196-1.1104-2.2769-2.3862-.5729-2.0466-.7914-3.6974-.2953-7.7226.5345-4.412 5.6642-4.4563 8.4342-2.7139 2.7701 1.7424 1.7099 6.5826 1.7099 6.5826z"
        fill="#ffa8a7" />
    <path
        d="m75.1756 26.4398h-.2481c-.4331 0-.8485-.1721-1.1547-.4783-.3063-.3063-.4784-.7217-.4784-1.1548 0-.4332.1721-.8485.4784-1.1548.3062-.3063.7216-.4783 1.1547-.4783h.2511c.4331 0 .8485.172 1.1547.4783.3063.3063.4784.7216.4784 1.1548 0 .4331-.1721.8485-.4784 1.1548-.3062.3062-.7216.4783-1.1547.4783zm-.2481-2.9916c-.3602 0-.7058.1431-.9605.3979-.2548.2548-.3979.6003-.3979.9606s.1431.7058.3979.9606c.2547.2547.6003.3978.9605.3978h.2511c.3602 0 .7058-.1431.9605-.3978.2548-.2548.3979-.6003.3979-.9606s-.1431-.7058-.3979-.9606c-.2547-.2548-.6003-.3979-.9605-.3979z"
        fill="#263238" />
    <path
        d="m70.2025 26.4398h-.251c-.4332 0-.8486-.1721-1.1548-.4783-.3063-.3063-.4783-.7217-.4783-1.1548 0-.4332.172-.8485.4783-1.1548.3062-.3063.7216-.4783 1.1548-.4783h.251c.4331 0 .8485.172 1.1548.4783.3062.3063.4783.7216.4783 1.1548 0 .4331-.1721.8485-.4783 1.1548-.3063.3062-.7217.4783-1.1548.4783zm-.251-2.9916c-.3603 0-.7059.1431-.9606.3979-.2548.2548-.3979.6003-.3979.9606s.1431.7058.3979.9606c.2547.2547.6003.3978.9606.3978h.251c.3603 0 .7058-.1431.9606-.3978.2547-.2548.3978-.6003.3978-.9606s-.1431-.7058-.3978-.9606c-.2548-.2548-.6003-.3979-.9606-.3979z"
        fill="#263238" />
    <path
        d="m73.3124 24.4848c-.0996-.1354-.2294-.2456-.3791-.322s-.3151-.1168-.4832-.118c-.14-.0141-.2812.0053-.4122.0567-.1309.0513-.2478.1331-.3409.2386l-.2185-.1654c.1196-.1414.2721-.2512.4441-.3197s.3583-.0936.5423-.0731c.2129.0021.4223.0549.6108.154.1884.0992.3506.2417.473.416z"
        fill="#263238" />
    <path d="m80.1311 24.473h-3.4729v.2746h3.4729z" fill="#263238" />
    <path
        d="m79.2538 25.923c.1476 0 .7058-.9273 1.072-1.2581.505-.4607-.1477-4.6246-.1477-4.6246s.4873-1.0366-.4872-2.1056c-.6911-.762-1.8487-.8476-3.8244-1.1577-1.0366-.1624-2.6076-.4548-3.6442-.6467-1.2344-.2304-2.2592-.4725-3.1304.2953-.342.2964-.5838.6915-.6922 1.1309-.1084.4395-.0781.9017.0868 1.3232.2501.5256.695.9334 1.2404 1.1369 0 0 .5374.4784 2.4127.7058s4.7959-.0413 5.1946-.0974c.5434-.0738.6586.4518.9539 1.893.2569 1.2551.4784 3.3961.9657 3.405z"
        fill="#263238" />
    <path
        d="m80.1753 20.3769 1.7719-.9538c-.0567-.1191-.137-.2255-.2359-.3128-.099-.0872-.2146-.1536-.3399-.195-.1252-.0413-.2576-.0569-.3891-.0458-.1314.0111-.2593.0487-.3758.1106-.2369.1335-.4136.3527-.4938.6125-.0802.2599-.0578.5405.0626.7843z"
        fill="#263238" />
    <path
        d="m73.8408 31.5724s2.6284-.5286 3.5439-1.0159c.5401-.2821.9827-.7205 1.2698-1.2581-.139.5355-.384 1.0376-.7206 1.4766-.6733.8594-4.096 1.4914-4.096 1.4914z"
        fill="#f28f8f" />
    <path
        d="m74.4728 24.7742c.004.1037.0385.2039.0992.2881.0606.0843.1447.1488.2417.1856.0971.0367.2028.0441.304.0212s.1935-.0751.2652-.1501c.0718-.075.1199-.1694.1383-.2715.0184-.1022.0064-.2075-.0346-.3028s-.1091-.1765-.1959-.2334c-.0868-.0568-.1885-.0869-.2922-.0864-.0706.0015-.1402.017-.2049.0454-.0646.0284-.123.0693-.1718.1204-.0488.051-.0871.1111-.1127.1769-.0255.0658-.0379.136-.0363.2066z"
        fill="#263238" />
    <path
        d="m75.3174 22.5947 1.1281.6202c.076-.1536.0912-.3302.0425-.4946-.0488-.1643-.1578-.3041-.3053-.3913-.074-.0409-.1554-.0665-.2394-.0752s-.169-.0005-.2497.0243c-.0808.0248-.1557.0657-.2203.1201-.0647.0544-.1177.1212-.1559.1965z"
        fill="#263238" />
    <path
        d="m74.0804 28.4095-1.202.4519c.0259.0807.0678.1553.1232.2194.0555.0641.1233.1163.1994.1536.0761.0372.159.0587.2436.0631.0847.0044.1693-.0083.2489-.0375.162-.0641.2928-.1886.365-.3472.0721-.1586.08-.339.0219-.5033z"
        fill="#f28f8f" />
    <path
        d="m69.6413 23.0554 1.0277-.7884c-.0479-.0689-.1091-.1273-.1802-.1718-.071-.0445-.1503-.0741-.2331-.0871-.0828-.0129-.1674-.009-.2486.0116-.0813.0207-.1575.0575-.2241.1085-.1383.1066-.2302.2625-.2566.4352s.0147.3489.1149.492z"
        fill="#263238" />
    <path
        d="m70.0934 24.6236c.0041.1037.0385.2039.0992.2881.0606.0843.1447.1488.2417.1855.0971.0368.2028.0442.304.0213s.1935-.0751.2652-.1501c.0718-.075.1199-.1694.1383-.2715.0185-.1022.0064-.2075-.0346-.3028s-.1091-.1765-.1959-.2334c-.0868-.0568-.1885-.0869-.2922-.0864-.0706.0015-.1402.017-.2048.0454-.0647.0284-.1231.0693-.1719.1203s-.0871.1112-.1126.177c-.0256.0658-.038.136-.0364.2066z"
        fill="#263238" />
    <path d="m72.6952 24.2013-.0591 3.1924-1.8871-.4164z" fill="#f28f8f" />
    <path
        d="m69.4705 50.7414v.2953c-.0001.151-.0401.2993-.1158.4299-.0757.1307-.1844.2391-.3153.3143l-8.201 4.7251c-.1306.0754-.2788.1151-.4297.1151-.1508 0-.299-.0397-.4297-.1151l-15.0464-8.6853c-.1309-.0752-.2397-.1836-.3154-.3143-.0756-.1306-.1156-.2789-.1157-.4299v-.2097l15.9057 9.1814z"
        fill="#6fb1fc" />
    <path
        d="m69.4705 50.7414v.2953c-.0001.151-.0401.2993-.1158.4299-.0757.1307-.1844.2391-.3153.3143l-8.201 4.7251c-.1306.0754-.2788.1151-.4297.1151-.1508 0-.299-.0397-.4297-.1151l-15.0464-8.6853c-.1309-.0752-.2397-.1836-.3154-.3143-.0756-.1306-.1156-.2789-.1157-.4299v-.2097l15.9057 9.1814z"
        fill="#000" opacity=".6" />
    <path
        d="m44.5103 46.8698 8.9215-5.1503c.0781-.0451.1667-.0689.2569-.0689s.1788.0238.2569.0689l15.4746 8.9363c.0172.0102.0314.0247.0412.042.0099.0173.015.0369.015.0569 0 .0199-.0051.0395-.015.0569-.0098.0173-.024.0318-.0412.042l-9.0042 5.1976z"
        fill="#6fb1fc" />
    <path
        d="m44.5103 46.8698 8.9215-5.1503c.0781-.0451.1667-.0689.2569-.0689s.1788.0238.2569.0689l15.4746 8.9363c.0172.0102.0314.0247.0412.042.0099.0173.015.0369.015.0569 0 .0199-.0051.0395-.015.0569-.0098.0173-.024.0318-.0412.042l-9.0042 5.1976z"
        fill="#000" opacity=".5" />
    <path d="m60.4895 55.2952 4.8107-2.776-14.0689-8.1212-4.8373 2.7612z" fill="#263238" />
    <path d="m62.8553 47.5756-.0886.0502-2.3596 1.3614-4.1935-2.4216-.0857-.0502 2.4453-1.4116z"
        fill="#263238" />
    <path d="m62.767 47.6258-2.3596 1.3615-4.1935-2.4217 2.3595-1.3614z" fill="#263238" />
    <path
        d="m60.4072 56.0512v.573c-.1503-.0002-.298-.0399-.4282-.1152l-15.0464-8.6853c-.1309-.0752-.2397-.1836-.3154-.3143-.0756-.1306-.1156-.2789-.1157-.4299v-.2097z"
        fill="#000" opacity=".7" />
    <path
        d="m60.1618 56.1782c-.1431.057-.2973.0805-.4508.0687-.1536-.0118-.3024-.0585-.4351-.1366l-14.9785-8.6469c-.1301-.0746-.2421-.1772-.3279-.3002-.0858-.1231-.1432-.2636-.1682-.4115l-1.6391-9.7809c-.0093-.0547-.0142-.11-.0147-.1654-.0018-.2717.1044-.5331.2953-.7265l15.5662 8.9895c.0987.0543.1842.1299.2501.2213.0659.0915.1106.1964.1308.3073z"
        fill="#6fb1fc" />
    <path
        d="m60.1618 56.1782c-.1431.057-.2973.0805-.4508.0687-.1536-.0118-.3024-.0585-.4351-.1366l-14.9785-8.6469c-.1301-.0746-.2421-.1772-.3279-.3002-.0858-.1231-.1432-.2636-.1682-.4115l-1.6391-9.7809c-.0093-.0547-.0142-.11-.0147-.1654-.0018-.2717.1044-.5331.2953-.7265l15.5662 8.9895c.0987.0543.1842.1299.2501.2213.0659.0915.1106.1964.1308.3073z"
        fill="#000" opacity=".5" />
    <path
        d="m60.4069 56.0512-.1004.0591c-.0455.0262-.0929.0489-.1418.0679l-1.7719-10.5812c-.0186-.1095-.0611-.2137-.1243-.305-.0633-.0913-.1459-.1677-.2419-.2236l-15.5662-8.9895c.0619-.0609.1314-.1135.2068-.1565l15.5986 9.0042c.096.056.1786.1323.2419.2236.0632.0914.1057.1955.1243.305z"
        fill="#e0e0e0" />
    <path
        d="m51.7275 47.1504c-.1093-.6527-.7855-1.5239-1.5091-1.9403-.7235-.4164-1.2226-.2273-1.1104.4283.1123.6556.7856 1.5238 1.5091 1.9431.7235.4194 1.2226.2245 1.1104-.4311z"
        fill="#6fb1fc" />
    <path
        d="m54.7958 53.5174c-.0312-.4238-.1135-.8422-.2451-1.2462-.2304-.7236-.9155-3.5113-2.4807-3.9307-.1861-.0559-.3837-.0621-.5729-.0177-.4341.1181-.632.5699-.7176.9745-.0798.5979-.0798 1.2036 0 1.8015-.2406-.2753-.5226-.5114-.8358-.6999-.2776-.2091-.6124-.3286-.9597-.3426-.0484-.0024-.0965.0071-.1403.0277s-.0818.0517-.1108.0904c-.0561.1034 0 .2333.0886.3249.1566.189.3485.3484.505.5374.1227.1649.2361.3364.3396.5139.1979.3189.4194.6202.6409.9243.4255.6321.9594 1.1839 1.577 1.6302.7103.4808 1.5163.8021 2.3625.942 1.1429.1418 2.2533.1241 2.9738-.1269z"
        fill="#ffa8a7" />
    <path
        d="m82.6239 35.2579c-1.0543-.5433-2.5958 1.6095-2.1056 3.8598s2.9059 10.1619 2.9059 10.1619-10.9119.9745-11.8392 1.0897c-.6468.0768-1.3703-.251-1.9698-.4489-.8151-.2717-1.639-.4607-2.4423-.756-.1397-.0642-.2921-.0965-.4459-.0945-.0772.0034-.1512.0321-.2105.0817-.0592.0497-.1005.1175-.1173.193-.0039.0924.0197.1838.0679.2628.2577.5255.6449.9768 1.1252 1.3112.2327.1375.4539.2935.6615.4666.127.127.4075.4784.2953.6704l-4.3352 2.4954s.9981.8682 4.6128-.1447c1.303-.3409 2.5746-.7924 3.8007-1.3496 0 0 12.8582.5345 15.1823-.1683.821-.2511 1.1163-.8328.5611-3.4789-.6349-3.0654-2.457-8.6557-2.8705-10.1323-.9066-3.1983-1.1222-3.1245-2.8764-4.0193z"
        fill="#ffa8a7" />
    <path
        d="m82.0802 34.8002s1.7424.4902 2.4925 1.4766c.7501.9863 3.6442 10.528 3.6442 10.528-.7565.631-1.6412 1.09-2.5927 1.3449-.9516.255-1.9472.2999-2.9179.1317 0 0-2.3271-6.6003-2.5752-8.3634-.44-2.7316.8949-4.8816 1.9491-5.1178z"
        fill="#6fb1fc" />
    <path
        d="m72.6775 41.2027c-.1418-.7383.3189-1.137 1.0306-.886.3767.1548.7118.3957.9785.7034s.4575.6737.5572 1.0685c.1417.7472-2.4275-.1535-2.5663-.8859z"
        fill="#6fb1fc" />
    <path
        d="m77.547 43.5032-2.0938-1.3319c.1063.567-.6585.4873-1.3466.2481s-1.5298-.7235-1.639-1.2905l-1.8251-.0237c-.1683 0-.1713.2186 0 .3987.4518.505 1.5032 1.3998 3.7121 2.1706 2.209.7708 3.0566.5316 3.3755.2953.1034-.0886.0089-.3455-.1831-.4666z"
        fill="#6fb1fc" />
</svg>