<svg fill="none" height="124" viewBox="0 0 130 124" width="130" xmlns="http://www.w3.org/2000/svg">
    <path
        d="m20.0603 113.578c25.0772 13.896 65.7377 13.896 90.8177 0 25.081-13.8951 25.077-36.4167 0-50.3217-25.0769-13.905-65.7405-13.8955-90.8208 0-25.08032 13.8955-25.07716 36.4266.0031 50.3217z"
        fill="#f5f5f5" />
    <path
        d="m11.0228 84.1059 2.2167-1.2667s1.0672-5.8933.2692-10.96c-1.1242-7.1219-5.97557-9.5793-7.73626-8.8668-1.76068.7125-2.17552 2.8184 1.00701 6.9319 1.88736 2.4194 4.30355 7.5526 4.24335 14.1616z"
        fill="#4364f7" />
    <path
        d="m11.0228 84.1059 2.2167-1.2667s1.0672-5.8933.2692-10.96c-1.1242-7.1219-5.97557-9.5793-7.73626-8.8668-1.76068.7125-2.17552 2.8184 1.00701 6.9319 1.88736 2.4194 4.30355 7.5526 4.24335 14.1616z"
        fill="#000" opacity=".01" />
    <path
        d="m11.8304 81.278h-.0221c-.0209-.0027-.041-.0096-.0592-.0202-.0182-.0105-.0342-.0247-.0468-.0415-.0127-.0168-.0219-.0359-.0271-.0563s-.0062-.0417-.0031-.0625c.9215-6.6691-1.7607-13.9747-4.77224-16.9165-.01484-.0148-.02662-.0323-.03465-.0516-.00804-.0193-.01218-.04-.01218-.0609s.00414-.0416.01218-.0608c.00803-.0193.01981-.0369.03465-.0516.01472-.0148.03224-.0266.05153-.0346.01929-.0081.03999-.0122.06089-.0122s.0416.0041.06089.0122c.0193.008.03681.0198.05153.0346 3.0685 2.9957 5.8014 10.4217 4.8672 17.1889-.0067.0377-.0267.0718-.0563.0962s-.0669.0374-.1052.0368z"
        fill="#fff" />
    <path
        d="m4.83505 87.6811c-.3515.2026-1.07668-.2407-1.35535-.4275-.47714-.3238-.86227-.7657-1.11784-1.2826-.28961-.5885-.38815-1.2527-.28184-1.9.05774-.3396.13814-.675.24067-1.0038.09184-.3167.18684-.6524.27867-.9785.11559-.3149.16518-.6501.14567-.9849-.0855-.6682-.68084-1.1368-1.21918-1.539-.595342-.4465-1.216016-1.0355-1.21285-1.8399.043426-.6246.292914-1.2171.70934-1.6846.38317-.4877.83918-.9152 1.18752-1.4314.27371-.3573.41676-.7977.40533-1.2477-.03641-.2766-.12909-.5428-.27233-.7821-.32668-.4976-.61261-1.0208-.85501-1.5644-.19634-.5637-.16784-1.2667.27234-1.6657.19633-.1463.41975-.2521.65731-.3113.23755-.0593.4845-.0708.72653-.0339.45592.0577.89426.2121 1.28569.4529 1.26668.7093 2.00452 2.2167 3.35987 2.7677.53753.1693 1.08546.3037 1.64035.4021.27826.0523.54243.1625.77536.3234.233.161.4295.3691.5768.6108.4972.9944-.4243 2.2167-.076 3.2744.3167.931 1.216 1.2889 1.7259 2.1312.2064.3709.2896.7979.2375 1.2192-.044.714-.219 1.4139-.5162 2.0647-.3291.6474-.707 1.2688-1.1305 1.8588-.0222.019-6.13391 3.5404-6.18775 3.5721z"
        fill="#4364f7" />
    <path
        d="m8.4545 85.7525c-.02107-.0004-.04185-.005-.06111-.0135-.01927-.0085-.03664-.0208-.05109-.0362-.01445-.0153-.02569-.0334-.03307-.0531-.00738-.0198-.01075-.0408-.0099-.0618.26284-6.3113-2.7107-13.2812-4.87356-15.3047-.01518-.0144-.02738-.0315-.03591-.0506-.00854-.0191-.01323-.0396-.01382-.0605s.00294-.0417.01039-.0612c.00744-.0195.01866-.0374.03301-.0525.01435-.0152.03154-.0274.05061-.036.01906-.0085.03962-.0132.06049-.0138.02088-.0006.04167.003.06119.0104.01951.0075.03737.0187.05254.033 2.2167 2.0647 5.23773 9.1486 4.97173 15.5485-.00165.0415-.01949.0806-.04969.109-.0302.0285-.07035.0439-.11181.043z"
        fill="#fff" />
    <path
        d="m7.5076 78.3108c-.01464.0029-.0297.0029-.04434 0-1.49593-.4123-3.03248-.6597-4.58222-.7378-.04172-.0025-.08086-.021-.10921-.0517-.02834-.0307-.04368-.0712-.04279-.113-.00007-.0211.00424-.042.01266-.0613.00841-.0193.02076-.0366.03624-.0509.01549-.0143.03377-.0252.0537-.0321.01993-.0068.04107-.0095.06207-.0077 1.57614.0744 3.13932.3218 4.66139.7378.04199.0063.07976.029.105.0632.02524.0341.03588.0769.02958.1189s-.02902.0798-.06317.105c-.03414.0252-.07692.0359-.11891.0296z"
        fill="#fff" />
    <path
        d="m115.286 75.3879-2.03-1.159s-.972-5.3644-.244-9.9783c1.023-6.4822 5.438-8.7179 7.043-8.0751 1.606.6429 1.979 2.5651-.918 6.3113-1.707 2.2072-3.905 6.8844-3.851 12.9011z"
        fill="#4364f7" />
    <path
        d="m115.286 75.3879-2.03-1.159s-.972-5.3644-.244-9.9783c1.023-6.4822 5.438-8.7179 7.043-8.0751 1.606.6429 1.979 2.5651-.918 6.3113-1.707 2.2072-3.905 6.8844-3.851 12.9011z"
        fill="#000" opacity=".01" />
    <path
        d="m114.552 72.8134h.019c.018-.0023.037-.0084.053-.0178s.031-.022.042-.0371c.012-.015.02-.0322.025-.0505s.006-.0374.003-.0561c-.83-6.0579 1.603-12.708 4.345-15.406.013-.0131.024-.0288.032-.046.007-.0173.011-.0359.011-.0547.001-.0188-.003-.0375-.01-.055s-.017-.0335-.03-.047-.029-.0243-.046-.0318-.036-.0115-.055-.0118c-.018-.0003-.037.0032-.055.0101-.017.0069-.033.0172-.047.0303-2.793 2.7297-5.282 9.5001-4.433 15.6467.005.0353.022.0676.049.0909.027.0234.061.0361.097.0358z"
        fill="#fff" />
    <path
        d="m120.92 78.6275c.317.1868.982-.2185 1.235-.3864.433-.2962.783-.6985 1.017-1.1685.261-.534.35-1.1357.256-1.7227-.052-.3096-.125-.6153-.218-.9152l-.257-.874c-.104-.2868-.148-.5917-.13-.8961.076-.6112.618-1.0356 1.109-1.4029.541-.4053 1.108-.95 1.105-1.6752-.037-.5667-.259-1.1055-.634-1.5327-.351-.4433-.766-.836-1.083-1.3015-.249-.3269-.378-.7292-.367-1.14.033-.2508.117-.4921.247-.7093.298-.4529.559-.9295.779-1.4251.177-.513.152-1.1495-.247-1.5168-.179-.1344-.384-.2317-.601-.286-.218-.0544-.444-.0648-.666-.0307-.416.0513-.816.1929-1.171.4149-1.162.6333-1.824 2.0203-3.059 2.5175-.489.1529-.988.2756-1.492.3673-.253.0464-.493.1454-.705.2905s-.392.3331-.527.5519c-.452.9025.387 2.0172.07 2.9767-.282.8518-1.108 1.1748-1.583 1.9412-.19.3377-.265.7275-.216 1.1115.039.6495.198 1.2861.469 1.8778.3.5899.644 1.1562 1.029 1.6942.026.019 5.589 3.2396 5.64 3.2396z"
        fill="#4364f7" />
    <path
        d="m117.623 76.8858c.02-.0004.039-.0047.057-.0126.017-.0079.033-.0193.047-.0334.013-.0142.023-.0309.03-.0491s.01-.0375.009-.0569c-.241-5.7444 2.467-12.0873 4.433-13.9335.015-.013.026-.0287.035-.0463.008-.0176.013-.0366.014-.0561.001-.0194-.002-.0388-.009-.057-.007-.0183-.017-.035-.031-.0492-.013-.0141-.029-.0255-.047-.0334-.018-.0078-.037-.0121-.056-.0124-.02-.0004-.039.0032-.057.0105-.018.0072-.035.018-.048.0317-2.008 1.881-4.769 8.3284-4.529 14.1552.002.0389.019.0756.047.1022.029.0267.066.0411.105.0403z"
        fill="#fff" />
    <path
        d="m118.485 70.0964c.014.003.029.003.044 0 1.36-.3751 2.758-.6002 4.167-.6714.038-.0016.074-.0181.1-.046.026-.0278.04-.0647.04-.1028 0-.0194-.004-.0386-.012-.0564s-.019-.0338-.034-.0469c-.014-.0131-.031-.0231-.049-.0293-.019-.0062-.038-.0085-.057-.0068-1.435.072-2.857.3014-4.241.6841-.037.011-.068.0361-.086.07-.018.0338-.023.0735-.012.1105.01.0286.029.0532.054.0703s.055.0257.086.0247z"
        fill="#fff" />
    <path
        d="m85.0065 35.6743 21.6125 12.48c.6.3898 1.098.9157 1.456 1.5347.358.6191.564 1.3139.603 2.0278v17.5277c-.039.7135-.245 1.4078-.602 2.0267-.358.6189-.855 1.1451-1.454 1.5359l-2.318 1.3395c-.637.3238-1.343.4925-2.058.4925s-1.42-.1687-2.058-.4925l-21.6162-12.48c-.5984-.3906-1.0963-.9167-1.4534-1.5357-.3571-.6189-.5632-1.3133-.6018-2.0269v-17.5277c.0386-.7135.2447-1.4079.6018-2.0269.3571-.6189.855-1.145 1.4534-1.5356l2.318-1.3395c.6379-.3238 1.3431-.4926 2.0584-.4926s1.4205.1688 2.0583.4926z"
        fill="#4364f7" />
    <path
        d="m106.619 50.5293-2.315 1.3363c-.599.3903-1.097.9162-1.455 1.5352-.357.619-.564 1.3136-.603 2.0274v17.5309c0 1.311.922 1.843 2.058 1.1875l2.318-1.3395c.599-.3908 1.096-.917 1.454-1.5359.357-.6189.563-1.3132.602-2.0267v-17.534c0-1.3079-.922-1.8399-2.059-1.1812z"
        fill="#000" opacity=".03" />
    <path
        d="m103.978 74.3081c-.608.2426-1.262.3539-1.916.3266-.655-.0273-1.297-.1925-1.884-.485l-21.6123-12.4863c-.5993-.3898-1.0981-.9157-1.4558-1.5347-.3577-.6191-.5642-1.3139-.6026-2.0278v-17.5277c.0236-.716.2308-1.4139.6017-2.0267l25.729 14.8518c-.369.6136-.576 1.3111-.601 2.0267v17.5372c.009 1.178.76 1.7259 1.741 1.3459z"
        fill="#000" opacity=".2" />
    <path
        d="m108.674 51.7105c0-1.3079-.918-1.8462-2.052-1.1875l-2.318 1.3363c-.607.3811-1.108.9094-1.456 1.5359l-25.7171-14.8487c.3476-.627.8489-1.1555 1.4566-1.5359l2.3181-1.3363c.6375-.3248 1.3428-.4941 2.0583-.4941s1.4209.1693 2.0584.4941l21.6127 12.4768c.595.3924 1.089.9189 1.443 1.537.354.6182.559 1.3109.596 2.0224z"
        fill="#fff" opacity=".1" />
    <path
        d="m81.292 45.2061 18.3954 10.6211c.5986.3902 1.0976.9162 1.4556 1.5351.357.619.564 1.3136.603 2.0274v13.8164c-.039.7138-.246 1.4083-.603 2.0273-.358.619-.857 1.145-1.4556 1.5352l-21.6065 12.48c-.6378.3238-1.343.4925-2.0583.4925s-1.4205-.1687-2.0584-.4925l-18.3985-10.6211c-.5993-.3899-1.0981-.9158-1.4558-1.5348-.3577-.6191-.5642-1.3139-.6026-2.0278v-13.8195c.0392-.7137.246-1.4082.6036-2.0272.3576-.6189.856-1.1449 1.4548-1.5353l21.6127-12.4768c.6375-.3233 1.3421-.4918 2.0568-.4918s1.4194.1685 2.0568.4918z"
        fill="#4364f7" />
    <path
        d="m99.6877 58.2022-21.6444 12.4832c-.6379.3238-1.3431.4925-2.0584.4925s-1.4205-.1687-2.0584-.4925l-18.3985-10.6212c-1.1337-.6555-1.1337-1.7195 0-2.375l21.6476-12.4831c.6378-.3238 1.343-.4926 2.0583-.4926.7154 0 1.4206.1688 2.0584.4926l18.3954 10.6211c1.1373.6555 1.1373 1.7195 0 2.375z"
        fill="#fff" opacity=".2" />
    <path
        d="m76.0163 71.1762v18.5664c-.7159.0145-1.4232-.158-2.0521-.5004l-18.3985-10.6147c-.5995-.3897-1.0984-.9155-1.4562-1.5346-.3577-.6191-.564-1.314-.6022-2.028v-13.8163c.0656-1.2016.6-2.3296 1.4884-3.1414-.5605.6333-.38 1.425.5383 1.9539l18.3922 10.6243c.6421.3427 1.3625.5119 2.0901.4908z"
        fill="#000" opacity=".2" />
    <path
        d="m52.3484 33.5462 21.6159-12.4768c.6379-.3237 1.3431-.4925 2.0584-.4925s1.4205.1688 2.0584.4925l2.318 1.3396c.5993.3898 1.0981.9157 1.4558 1.5347.3577.6191.5641 1.3139.6025 2.0278v17.5277c-.0384.7139-.2448 1.4087-.6025 2.0278-.3577.619-.8565 1.1449-1.4558 1.5347l-21.6128 12.48c-.6378.3238-1.343.4926-2.0583.4926s-1.4206-.1688-2.0584-.4926l-2.318-1.3395c-.5982-.3908-1.096-.9169-1.4531-1.5358-.357-.619-.5633-1.3133-.6021-2.0267v-17.5309c.0382-.7133.2439-1.4075.6004-2.0264.3565-.619.8538-1.1452 1.4516-1.5362z"
        fill="#4364f7" />
    <path
        d="m81.8526 23.948-25.7295 14.8581c-.3438-.6315-.8457-1.1629-1.4567-1.5421l-2.3212-1.3396c-1.1305-.6555-2.0488-.1266-2.0488 1.1876.0383-.7129.2438-1.4067.5997-2.0256.3559-.6188.8523-1.1453 1.4491-1.537l21.6191-12.4768c.638-.3233 1.3432-.4918 2.0584-.4918s1.4204.1685 2.0584.4918l2.3211 1.3395c.6083.3778 1.108.907 1.4504 1.5359z"
        fill="#fff" opacity=".2" />
    <path
        d="m52.3482 35.9213 2.318 1.3395c.599.3902 1.0975.9162 1.4551 1.5352.3577.6189.5643 1.3135.6032 2.0273v17.5372c0 1.3111-.9215 1.8431-2.0583 1.1876l-2.318-1.3396c-.5982-.3907-1.096-.9169-1.4531-1.5358-.357-.6189-.5633-1.3132-.6021-2.0267v-17.5372c0-1.311.9183-1.843 2.0552-1.1875z"
        fill="#000" opacity=".2" />
    <path
        d="m54.8088 60.5044 18.3954 10.6243c.5993.3899 1.0981.9157 1.4558 1.5348.3577.619.5642 1.3138.6026 2.0277v13.8164c-.0389.7138-.2456 1.4084-.6032 2.0274-.3577.6189-.8562 1.1449-1.4552 1.5351l-21.6127 12.4769c-.6379.324-1.3431.492-2.0584.492s-1.4205-.168-2.0584-.492l-18.3953-10.6212c-.599-.3902-1.0975-.9162-1.4552-1.5352-.3576-.6189-.5643-1.3135-.6032-2.0273v-13.8164c.0389-.7138.2456-1.4084.6032-2.0273.3577-.619.8562-1.145 1.4552-1.5352l21.6127-12.48c.6378-.3238 1.3431-.4925 2.0584-.4925s1.4205.1687 2.0583.4925z"
        fill="#4364f7" />
    <path
        d="m73.2043 73.5037-21.6444 12.4832c-.6379.3237-1.3431.4925-2.0584.4925s-1.4205-.1688-2.0584-.4925l-18.3985-10.6243c-1.1337-.6555-1.1337-1.7164 0-2.375l21.6476-12.4832c.6378-.3238 1.343-.4925 2.0583-.4925s1.4206.1687 2.0584.4925l18.3954 10.6243c1.1368.6555 1.1368 1.7164 0 2.375z"
        fill="#fff" opacity=".2" />
    <path
        d="m49.5333 86.4777v18.5633c-.7156.015-1.4228-.156-2.052-.497l-18.3985-10.6182c-.5999-.3893-1.0991-.915-1.4568-1.5342-.3578-.6192-.5639-1.3142-.6016-2.0283v-13.8132c.0651-1.2027.5996-2.3317 1.4884-3.1445-.5605.6333-.38 1.425.5383 1.957l18.3922 10.6243c.6426.3414 1.3627.5105 2.09.4908z"
        fill="#000" opacity=".2" />
    <path
        d="m25.865 48.8604 21.6128-12.48c.6378-.3237 1.343-.4925 2.0583-.4925s1.4205.1688 2.0584.4925l2.318 1.3396c.599.3902 1.0975.9161 1.4551 1.5351.3577.619.5643 1.3136.6033 2.0274v17.5309c-.039.7138-.2456 1.4084-.6033 2.0274-.3576.6189-.8561 1.1449-1.4551 1.5351l-21.6159 12.4515c-.6379.3238-1.3431.4925-2.0584.4925s-1.4205-.1687-2.0583-.4925l-2.3181-1.3363c-.5978-.3912-1.0953-.9174-1.4523-1.5363-.3571-.6188-.5635-1.3129-.6029-2.0263v-17.5182c.0407-.7117.2481-1.4038.6057-2.0205s.8552-1.1406 1.4527-1.5294z"
        fill="#4364f7" />
    <path
        d="m25.8652 51.2228 2.3181 1.3363c.5988.3905 1.0972.9164 1.4548 1.5354.3576.6189.5644 1.3134.6035 2.0272v17.5309c0 1.311-.9215 1.843-2.0583 1.1875l-2.3181-1.3364c-.5978-.3911-1.0953-.9174-1.4523-1.5362s-.5635-1.313-.6028-2.0263v-17.5309c0-1.311.9183-1.843 2.0551-1.1875z"
        fill="#000" opacity=".2" />
    <path
        d="m55.3631 39.2432-25.7327 14.8518c-.3494-.6257-.8503-1.1538-1.4567-1.5359l-2.318-1.3395c-1.1337-.6555-2.0583-.1171-2.0583 1.1875.0406-.7134.248-1.4073.6055-2.026s.8551-1.145 1.4528-1.5365l21.6128-12.4768c.638-.3233 1.3431-.4918 2.0583-.4918.7153 0 1.4204.1685 2.0584.4918l2.318 1.3395c.6086.3804 1.1108.9088 1.4599 1.5359z"
        fill="#fff" opacity=".2" />
    <path
        d="m25.3869 70.0774 21.6128 12.4799c.5985.3904 1.0966.9165 1.4537 1.5355s.5631 1.3135.6015 2.0271v17.5241c-.0379.714-.2437 1.409-.6009 2.028-.3571.619-.8554 1.145-1.4543 1.535l-2.3181 1.339c-.6378.324-1.343.493-2.0583.493s-1.4205-.169-2.0584-.493l-21.6096-12.5017c-.5988-.3904-1.0972-.9164-1.4548-1.5353-.3576-.619-.5644-1.3135-.6035-2.0272v-17.5182c.0389-.7138.2456-1.4084.6032-2.0274s.8562-1.1449 1.4551-1.5352l2.3181-1.3395c.6386-.3208 1.3439-.4865 2.0586-.4838.7147.0028 1.4187.1739 2.0549.4997z"
        fill="#4364f7" />
    <path
        d="m46.9999 84.9165-2.318 1.3364c-.599.3902-1.0975.9162-1.4551 1.5351-.3577.619-.5643 1.3136-.6033 2.0274v17.5306c0 1.311.9215 1.843 2.0584 1.188l2.318-1.34c.5973-.388 1.0945-.912 1.4516-1.529s.5638-1.309.6036-2.021v-17.54c0-1.311-.9183-1.843-2.0552-1.1875z"
        fill="#000" opacity=".03" />
    <path
        d="m44.3589 108.711c-.6087.244-1.262.356-1.917.328-.655-.027-1.2968-.193-1.8831-.486l-21.6064-12.5087c-.599-.3902-1.0975-.9161-1.4551-1.5351-.3577-.619-.5643-1.3136-.6033-2.0274v-17.5182c.0243-.7159.2315-1.4136.6017-2.0267l25.7295 14.8518c-.3678.6142-.5748 1.3113-.6017 2.0267v17.5336c-.0095 1.182.7537 1.726 1.7354 1.362z"
        fill="#000" opacity=".2" />
    <path
        d="m49.0518 86.1009c0-1.3047-.9183-1.843-2.0488-1.1875l-2.3212 1.3395c-.6071.3812-1.1081.9095-1.4567 1.5358l-25.7295-14.8613c.3496-.6257.8504-1.1537 1.4567-1.5359l2.3212-1.3395c.638-.3233 1.3431-.4917 2.0583-.4917.7153 0 1.4204.1684 2.0584.4917l21.6128 12.4768c.5974.3934 1.094.9215 1.4499 1.542.3559.6204.561 1.3158.5989 2.0301z"
        fill="#fff" opacity=".1" />
    <path
        d="m48.2281 46.6437c2.4668-.0823 3.8.8519 4.218 2.7361s-.893 9.5001-.893 9.5001c3.8666 2.3687 6.5044 3.9235 8.3348 4.769 1.4408.6619 5.7 4.1896 5.7475 5.0478.0475.8581-1.6656-.5985-2.7328-1.3079-1.0672-.7093-2.3465-.6333-4.4714-1.2033s-9.6838-2.4986-10.7415-3.5087c-1.0576-1.0102.5384-16.0331.5384-16.0331z"
        fill="#ffa8a7" />
    <path
        d="m63.71 91.7788c-.2882.3166-.6143.6523-.5795 1.0291.1061.8057.4641 1.5571 1.0228 2.1471.7949.8582 1.3142 2.4953 1.4631 3.6069.1488 1.1115.247 3.9461 1.6561 5.0671 1.4092 1.121 4.8261 1.675 4.8261-.393s-4.0787-10.0132-4.0787-10.0132z"
        fill="#222831" />
    <path
        d="m65.604 93.1088c.5711 1.4407 1.0316 2.9227 1.3775 4.4334.3484 1.6593.8392 2.8248 1.6847 3.2748.8455.449 2.109.364 1.634-.764-.475-1.127-2.28-6.8429-2.28-6.8429z"
        fill="#f28f8f" />
    <path
        d="m54.6788 64.8776s6.7197 3.0749 9.9877 4.8292c3.2681 1.7544 6.3746 3.4834 7.0238 4.8863.684 1.4947.5098 5.0667.152 8.4772-.3578 3.4106-1.1084 9.5761-1.1084 9.5761l-9.5666-14.3356-9.6141-6.3493z"
        fill="#455a64" />
    <path
        d="m54.3745 71.42.3167-.7125s5.5544 3.2079 7.4829 4.4017c1.9285 1.1939 3.9869 2.6569 4.9337 4.8514.9469 2.1946 3.8729 10.8903 3.8729 10.8903l-6.7451-12.0809z"
        fill="#37474f" />
    <path
        d="m71.5507 103.385c-.2755.18-.2375.867-.2122 1.368.0253.5-.3167 1.159.3958 1.931.7125.773 1.9539.843 2.9482 1.9.9944 1.058 2.5334 3.009 5.2504 3.148 2.7171.14 4.6076-1.051 4.9749-1.919.3674-.868-.1931-1.539-2.0362-2.236-1.957-.741-2.5143-.95-2.5143-.95z"
        fill="#222831" />
    <path
        d="m73.5299 97.4978s1.8398 3.3282 2.8753 4.8262c1.0356 1.498 2.5017 2.85 4.0914 4.056.3452.266 1.1052.732 1.3871.95.0646.041.1196.094.161.158s.0682.136.0784.211c.0103.076.0039.152-.0189.225-.0228.072-.0614.139-.1129.195-.456.662-2.85 1.292-4.4112.557-1.5612-.734-3.2934-2.391-4.2687-3.04-.4909-.316-.95-.633-1.2889-.871-.1594-.108-.2881-.255-.3736-.428-.0855-.172-.1248-.364-.114-.556 0-.111 0-.241.0158-.393.0253-.82-1.6689-3.8001-1.6689-3.8001z"
        fill="#ffa8a7" />
    <path
        d="m39.811 68.6713c.0285 2.7329.1647 4.2561 1.5834 6.7483s4.9274 4.0692 9.0536 5.4562c3.4137 1.1464 8.4361 2.7835 9.4304 2.9989.9944.2153 1.2034.7473 1.4314 2.5112.228 1.7638 1.4187 4.484 4.085 7.6444 1.9349 2.3483 3.7425 4.7987 5.4151 7.3407 0 0 2.7867 0 3.8539-1.856 0 0-7.7553-18.294-8.9966-20.4062-1.2414-2.1122-11.3052-7.6888-11.3052-7.6888s.171-3.7842.3167-6.5424z"
        fill="#455a64" />
    <path
        d="m55.7995 68.7062c-.409.9377-.8852 1.8447-1.425 2.7138l.6334.3452c.4745-.9532.7442-1.9953.7916-3.059z"
        fill="#37474f" />
    <path
        d="m41.5054 47.7331-2.4193 1.216s1.6688 1.6784 1.2096 5.8014c-.3166 2.9197-.9753 3.1667-2.4573 3.9932 1.9728 4.4841 1.9982 11.0835 1.9982 11.0835s3.4833 1.8715 9.8168.0696c5.5702-1.5833 5.016-5.0192 5.016-5.0192l-2.394-1.8462-.532-4.3542s1.9-1.9 1.0703-5.2694-4.5854-6.7641-4.5854-6.7641h-1.4693z"
        fill="#fafafa" />
    <path
        d="m53.779 67.5123c-2.8278 1.0577-7.125 1.2255-8.8667 0s-3.1889-4.6044-2.9071-6.7926c.2819-2.1882-.2755-5.928-1.1336-8.1447l-.5605-.1584c.0704.7758.0609 1.5569-.0285 2.3307-.3167 2.9197-.9754 3.1667-2.4574 3.9932 1.8525 4.3733 1.9982 11.0835 1.9982 11.0835s3.4834 1.8715 9.8168.0697c1.7987-.5099 3.2522-1.3015 4.1167-2.3846z"
        fill="#f0f0f0" />
    <path
        d="m45.9291 44.2592-2.7202.0728c-1.8182.0494-3.5817-.6254-4.9024-1.8761-1.3207-1.2506-2.0906-2.9747-2.1403-4.7929-.0546-2.1775.7559-4.2878 2.254-5.8689 1.498-1.5811 3.5615-2.5043 5.7387-2.5672 2.178-.0554 4.2891.7547 5.8709 2.2528 1.5818 1.4982 2.5054 3.5622 2.5684 5.7399.0485 1.8177-.6267 3.5803-1.8773 4.9004-1.2506 1.32-2.9741 2.0895-4.7918 2.1392z"
        fill="#222831" />
    <path
        d="m41.9801 27.3268c1.2129 1.7006 0 2.9102-1.7068 4.1168-1.7069 1.2065-3.2396 1.9696-4.4524.2691-1.2129-1.7005-.6112-3.6417 1.0893-4.8545 1.7006-1.2129 3.8634-1.2192 5.0699.4686z"
        fill="#222831" />
    <path
        d="m37.879 32.7799-1.71 1.3268c-.0925-.1077-.1621-.233-.2047-.3684-.0426-.1355-.0572-.2781-.043-.4194.0142-.1412.057-.2781.1257-.4024.0687-.1242.1619-.2332.274-.3203.2333-.1761.5256-.2554.8159-.2212.2903.0343.5562.1793.7421.4049z"
        fill="#222831" />
    <path
        d="m49.3239 32.7641c.8804.4908 2.0141 2.6442 2.0331 7.2232 0 3.8792-1.216 4.8736-1.8399 5.1649-.6238.2914-1.8462.1583-3.0337 0l.019 1.6087s2.1344 2.3339 2.0615 3.4042c-.0728 1.0704-2.7297 1.6245-4.2908.6334-1.5612-.9912-2.9071-2.9736-2.9071-2.9736l-.114-5.3834s-.6777.6935-1.9-.3167c-.9975-.8265-1.3649-2.2546-.6334-3.0495.1922-.1883.4264-.3284.6832-.4087.2569-.0802.5291-.0984.7943-.0529.2653.0454.5159.1531.7314.3143s.3897.3712.5082.6128c0 0 1.9.019 4.3637-1.4313.9667-.5507 1.7898-1.3219 2.4023-2.2507.6124-.9289.9969-1.9892 1.1222-3.0947z"
        fill="#ffa8a7" />
    <path
        d="m46.9994 39.1291c.0035.0955-.0212.19-.071.2715-.0498.0816-.1224.1468-.2089.1874-.0865.0407-.183.055-.2776.0412-.0946-.0137-.183-.055-.2544-.1186-.0713-.0636-.1224-.1467-.1468-.2391-.0245-.0924-.0213-.1899.0092-.2805.0305-.0905.0869-.1701.1623-.2289.0753-.0588.1663-.0941.2616-.1016.0653-.0039.1307.0052.1925.0267s.1188.0549.1676.0985c.0488.0435.0886.0963.117.1552.0284.059.0449.1229.0485.1882z"
        fill="#222831" />
    <path
        d="m47.2179 42.413 1.1432.3325c-.0184.0763-.0519.1481-.0987.2111s-.1058.1159-.1735.1555c-.0678.0396-.1428.0652-.2206.0751-.0779.0099-.1569.004-.2324-.0173-.1526-.0498-.2806-.1555-.3582-.296s-.099-.3052-.0598-.4609z"
        fill="#f28f8f" />
    <path
        d="m50.9577 37.5236-1.007-.6586c.0398-.0676.093-.1263.1562-.1727s.1352-.0795.2116-.0973c.0764-.0177.1556-.0198.2328-.0061.0772.0138.1508.043.2164.0861.134.0904.2284.2287.2637.3865s.009.3232-.0737.4621z"
        fill="#222831" />
    <path
        d="m50.7615 38.6731c.0041.0964-.0203.1919-.0701.2745s-.1229.1487-.2101.19c-.0871.0413-.1845.056-.28.0423s-.1848-.0553-.2568-.1195-.1235-.1482-.1481-.2415c-.0245-.0933-.021-.1917.0101-.283.031-.0913.0883-.1715.1647-.2304.0764-.059.1684-.0941.2646-.101.1317-.007.2609.0384.3593.1262.0984.0877.1582.2108.1664.3424z"
        fill="#222831" />
    <path d="m48.5513 38.214.0601 3.1762 1.5296-.5193z" fill="#f28f8f" />
    <path
        d="m46.4833 45.1459c-1.2667-.1298-3.838-.798-4.2655-1.7987.1739.5081.5001.9504.9342 1.2667.7853.6333 3.3503 1.3047 3.3503 1.3047z"
        fill="#f28f8f" />
    <path
        d="m45.4033 74.8274v.3357c-.0001.1668.0438.3308.1271.4753.0834.1446.2034.2646.3479.348l9.0631 5.2156c.1445.0834.3083.1273.475.1273.1668 0 .3306-.0439.475-.1273l16.6252-9.5983c.1445-.0834.2645-.2035.3479-.348s.1273-.3085.1271-.4753v-.2312l-17.5752 10.1334z"
        fill="#ebebeb" />
    <path
        d="m72.9948 70.546-9.858-5.7c-.0861-.0498-.1839-.076-.2834-.076s-.1972.0262-.2834.076l-17.1002 9.8769c-.0191.0112-.0348.0271-.0458.0463s-.0168.0409-.0168.063c0 .022.0058.0437.0168.0629s.0267.0351.0458.0463l9.9529 5.7476z"
        fill="#fafafa" />
    <path
        d="m58.4473 66.195c.8106.3166.779.551 1.4408.9246 1.2255.6967 2.0204.5606 2.0204.5606.3644.3424.7517.6598 1.159.95.8645.5953 1.7353 1.0513 2.8025.7156 1.1685-.3705.3452-1.5263 0-2.0963s-2.2167-2.2389-2.5967-2.5809-1.9665-.5763-3.3693-1.0133z"
        fill="#ffa8a7" />
    <path d="m55.3281 79.8561-5.3169-3.0653 15.5485-8.9776 5.3454 3.0495z" fill="#e0e0e0" />
    <path d="m52.7153 71.325.0982.057 2.6062 1.5042 4.6329-2.6758.0982-.0539-2.7044-1.5612z"
        fill="#e0e0e0" />
    <path d="m52.8135 71.382 2.6062 1.5042 4.6329-2.6758-2.6062-1.5042z" fill="#e6e6e6" />
    <path
        d="m55.4199 80.6921v.6334c.1667.0002.3305-.0435.475-.1267l16.6252-9.5983c.1445-.0834.2645-.2034.3479-.348.0834-.1445.1272-.3085.1271-.4753v-.2312z"
        fill="#ebebeb" />
    <path
        d="m55.4199 80.6921v.6334c.1667.0002.3305-.0435.475-.1267l16.6252-9.5983c.1445-.0834.2645-.2034.3479-.348.0834-.1445.1272-.3085.1271-.4753v-.2312z"
        fill="#e0e0e0" opacity=".25" />
    <path
        d="m55.6855 80.8441c.1575.0607.3265.0854.4948.0722.1682-.0131.3313-.0638.4774-.1482l16.5524-9.5571c.1437-.083.2673-.1967.362-.333.0948-.1363.1582-.2918.1858-.4555l1.8145-10.8048c.0048-.0622.0048-.1246 0-.1868-.0002-.3006-.1198-.5888-.3325-.8012l-17.2015 9.934c-.106.0616-.1973.1457-.2673.2463-.07.1007-.1171.2155-.138.3363z"
        fill="#ebebeb" />
    <path
        d="m55.4199 80.6953.114.0634c.0491.0284.0998.0538.152.076l1.9602-11.7074c.0209-.1208.068-.2356.138-.3363.0701-.1006.1613-.1847.2674-.2463l17.2015-9.934c-.069-.0667-.1455-.1251-.228-.1741l-17.2395 9.9624c-.1059.0618-.1971.1459-.2671.2466-.07.1006-.1172.2153-.1383.3361z"
        fill="#fafafa" />
    <path
        d="m65.0119 70.8564c.1203-.722.8676-1.6847 1.6656-2.1471.798-.4623 1.3522-.2501 1.2319.475-.1203.7252-.8709 1.6847-1.6689 2.1471-.798.4623-1.3521.2501-1.2286-.475z"
        fill="#4364f7" />
    <path
        d="m46.8569 73.1142c-2.1122-.6143-9.6743-2.7297-11.9701-3.4834-1.5834-.5193-2.4606-.8835-2.5049-2.2673-.038-1.2857 1.8652-11.8182 2.5587-14.4117.6048-2.2769 1.9539-3.0559 4.1452-4.0122 1.5137 1.197 1.9444 7.2992.1362 8.9016-.6745 2.6727-1.9 7.3151-1.9 7.3151s4.3004 2.2357 7.3721 3.7145c1.5326.7379 3.61 1.7956 4.8323 1.9286.9691.1045 2.6886.171 3.0591.5098.8935.9089 1.726 1.8758 2.4922 2.8944.3451.5668 1.1717 1.7258 0 2.0963-1.0672.3357-1.9349-.1203-2.8026-.7157-.4069-.2906-.7941-.608-1.159-.95-.8662.0952-1.7407-.0783-2.5048-.4971-.6492-.3705-1.7544-1.0229-1.7544-1.0229z"
        fill="#ffa8a7" />
    <path
        d="m41.0905 16.9527-1.1495-2.1596.9247-2.6664v-1.6372l-2.831 1.6372v1.634l1.216 2.109c.0201.0315.0486.0568.0823.0729z"
        fill="#e0e0e0" />
    <path
        d="m39.8115 14.7867 1.2192 2.09c.0175.0282.0426.0508.0723.0654.0297.0147.0629.0207.0959.0174s.0643-.0158.0906-.036c.0262-.0202.0463-.0474.0579-.0784l1.2667-3.7019z"
        fill="#f0f0f0" />
    <path
        d="m45.8535 2.06922c-.0162-.29434-.1015-.58074-.2489-.836-.1475-.25527-.3529-.47224-.5998-.633355l-.6903-.399005c-.2636-.1315772-.5541-.20007131-.8487-.20007131s-.5851.06849411-.8487.20007131l-16.0013 9.24678c-.2472.16074-.453.37762-.6005.63296-.1474.2553-.2325.5419-.2482.8364v8.2746c.0157.2944.1008.581.2482.8364.1475.2553.3533.4722.6005.6329l.6903.399c.2628.1343.5536.2043.8487.2043.295 0 .5859-.07.8487-.2043l3.4073-1.9665 2.8247-1.634 9.7693-5.6494c.2467-.1613.452-.3783.5994-.6335.1475-.2553.2328-.5416.2493-.8359z"
        fill="#f0f0f0" />
    <path
        d="m25.7671 19.1916c.0157.2944.1008.581.2482.8364.1475.2553.3533.4722.6005.6329l.6903.399c.2391.1203.501.1887.7684.2007s.5343-.0326.7833-.131c-.399.1488-.703-.076-.703-.5605v-8.2746c.0105-.295.0955-.5826.247-.836l-2.3877-1.3775c-.1519.2532-.2369.5409-.247.836z"
        fill="#e0e0e0" />
    <path
        d="m45.8248 1.82855c-.0982-.36101-.4275-.47501-.8202-.25017l-16.0077 9.24682c-.2518.1546-.4583.3731-.5985.6333l-2.3877-1.3775c.1421-.25885.3482-.47692.5985-.63336l16.0046-9.246777c.2639-.1320908.5551-.200863.8502-.200863.2952 0 .5863.0687722.8503.200863l.6903.402172c.2131.137521.3958.317189.5368.527945.1411.21076.2375.44815.2834.69757z"
        fill="#fafafa" />
    <path
        d="m30.2828 12.095 13.449-7.76475c.2818-.16467.513-.08867.513.16783-.0212.15764-.0785.30826-.1675.44009s-.2073.24132-.3455.31992l-13.449 7.76481c-.285.1646-.5162.0886-.5162-.1679.0213-.158.079-.3089.1686-.4408s.2085-.2411.3476-.3192z"
        fill="#fff" />
    <path
        d="m30.2828 14.7424 13.449-7.76479c.2818-.16467.513-.08867.513.16784-.0217.15749-.0792.30791-.1681.43968-.089.13176-.207.24135-.3449.32033l-13.449 7.76474c-.285.1647-.5162.0887-.5162-.1678.0208-.1582.0783-.3093.168-.4412.0896-.132.2088-.2412.3482-.3188z"
        fill="#fff" />
    <path
        d="m30.2828 17.3897 13.449-7.76472c.2818-.16467.513-.09183.513.16467-.0226.15637-.0805.30555-.1694.43615s-.2064.2392-.3436.3175l-13.449 7.7648c-.285.1647-.5162.0887-.5162-.1679.0222-.1564.0804-.3056.1699-.4358.0896-.1303.2081-.2379.3463-.3147z"
        fill="#fff" />
    <path
        d="m54.5996 24.0272-1.1495-2.1629.9246-2.6695v-1.6341l-2.8278 1.6341v1.634l1.216 2.109c.0194.0321.0481.0575.0823.0728z"
        fill="#4364f7" />
    <path
        d="m54.5996 24.0272-1.1495-2.1629.9246-2.6695v-1.6341l-2.8278 1.6341v1.634l1.216 2.109c.0194.0321.0481.0575.0823.0728z"
        fill="#000" opacity=".2" />
    <path
        d="m66.7661 4.84325c-.0157-.29446-.1008-.58104-.2483-.83638-.1474-.25535-.3532-.47223-.6004-.63297l-.6903-.399c-.2628-.13426-.5536-.20427-.8487-.20427s-.5859.07001-.8487.20427l-16.0013 9.2373c-.2461.1627-.4509.3805-.5982.6361-.1473.2555-.2331.5419-.2505.8364v8.2746c.0157.2945.1008.581.2482.8364.1475.2553.3533.4722.6005.6329l.6903.4149c.2636.1316.5541.2.8487.2s.5851-.0684.8487-.2l3.4073-1.9697 1.2129 2.1027c.0179.0272.0429.049.0723.0632s.0621.0201.0945.0172c.0325-.003.0636-.0146.09-.0338s.047-.0451.0598-.0751l1.2826-3.7051 9.7692-5.6462c.2473-.1607.453-.3776.6005-.633.1475-.2553.2325-.5419.2482-.8363z"
        fill="#4364f7" />
    <path
        d="m46.6797 21.9593c.0157.2945.1008.581.2482.8364.1475.2553.3533.4722.6005.6329l.6903.4149c.2391.1202.501.1886.7684.2006s.5343-.0326.7833-.1309c-.399.1488-.703-.0761-.703-.5606v-8.2904c.0101-.2951.0951-.5828.247-.836l-2.3877-1.3807c-.1519.2544-.2369.5431-.247.8392z"
        fill="#000" opacity=".2" />
    <g fill="#fff">
        <path
            d="m66.7379 4.59625c-.0982-.361-.4275-.475-.8202-.25017l-16.0013 9.24682c-.2519.1546-.4584.3731-.5985.6333l-2.3877-1.3775c.142-.2588.3481-.4769.5985-.6334l15.9855-9.24673c.264-.13209.5551-.20086.8503-.20086.2951 0 .5863.06877.8502.20086l.6904.399c.2155.13689.4006.31658.5439.52793.1432.21134.2416.44985.2889.70075z"
            opacity=".2" />
        <path
            d="m53.7414 15.1952c-.3293.2149-.6032.5044-.7996.845s-.3098.7226-.331 1.1152c0 .722.5067 1.0165 1.1306.6555.33-.2151.6047-.5049.8016-.8461.197-.3411.3108-.7239.332-1.1172 0-.7221-.5066-1.0134-1.1336-.6524z" />
        <path
            d="m57.9152 12.779c-.3293.2156-.6032.5057-.7996.8468-.1964.341-.3098.7236-.3309 1.1166 0 .722.5066 1.0133 1.1305.6523.33-.2144.6046-.5036.8016-.8443.197-.3406.3108-.723.3321-1.1159 0-.722-.5067-1.0165-1.1337-.6555z" />
        <path
            d="m62.0922 10.366c-.33.2144-.6047.5037-.8017.8443s-.3107.723-.332 1.1159c0 .722.5067 1.0133 1.1337.6523.3292-.2149.6031-.5044.7995-.8449.1964-.3406.3098-.7227.331-1.1153 0-.722-.5067-1.0133-1.1305-.6523z" />
    </g>
</svg>