<svg fill="none" height="120" viewBox="0 0 120 120" width="120" xmlns="http://www.w3.org/2000/svg">
    <path
        d="M84.0408 55.978C86.0815 53.883 88.9444 52.8328 92.6402 52.8328C96.0412 52.8328 98.8933 53.8233 101.19 55.7989C103.487 57.7781 104.766 60.6868 105.027 64.5051H80.2036C80.726 60.9197 82.0055 58.0779 84.0408 55.978ZM73.7486 92.6146C79.3532 97.1376 85.8257 99.3955 93.1573 99.3955C102.046 99.3955 108.956 96.7149 113.888 91.3576C117.066 87.9826 118.846 84.6606 119.233 81.3947H104.521C103.667 83.0144 102.677 84.2751 101.555 85.1812C99.5037 86.8732 96.8369 87.7129 93.5553 87.7129C90.4573 87.7129 87.8121 87.0222 85.6134 85.639C81.9934 83.4174 80.0721 79.5398 79.8495 74.0102H119.983C120.055 69.2543 119.896 65.6042 119.51 63.0744C118.841 58.7565 117.377 54.9556 115.119 51.6825C112.62 47.9714 109.442 45.2522 105.594 43.5324C101.756 41.809 97.4348 40.9518 92.6349 40.9518C84.5637 40.9518 77.9947 43.4974 72.9318 48.5921C67.8702 53.6797 65.3408 61.0005 65.3408 70.5464C65.3408 80.739 68.144 88.0899 73.7486 92.6146Z"
        fill="#171717" />
    <path d="M107.89 27.2863H75.5068V34.8091H107.89V27.2863Z" fill="#171717" />
    <path
        d="M14.8646 84.5801V64.7173H33.2056C36.4118 64.7473 38.8874 65.1661 40.6565 65.9779C43.8187 67.4226 45.4039 70.0835 45.4039 73.9616C45.4039 78.5443 43.7698 81.6454 40.5057 83.2705C38.7087 84.1452 36.1892 84.5801 32.9619 84.5801H14.8646ZM14.8646 35.9435H31.0774C34.6485 35.9435 37.5814 36.3309 39.885 37.1113C42.5567 38.2189 43.891 40.5123 43.891 43.9815C43.891 47.1195 42.8794 49.3006 40.8598 50.5295C38.8434 51.7601 36.2157 52.3753 32.9776 52.3753H14.8646V35.9435ZM44.1136 96.5101C47.3463 95.8405 50.1549 94.5941 52.5335 92.7707C54.6392 91.186 56.4026 89.2346 57.8122 86.9103C60.023 83.4002 61.1275 79.4419 61.1275 75.0203C61.1275 70.7446 60.1581 67.1053 58.226 64.1056C56.289 61.1045 53.4208 58.913 49.6163 57.5316C52.1197 56.2516 54.0132 54.8334 55.3035 53.2855C57.6 50.5259 58.7538 46.8637 58.7538 42.3129C58.7538 37.8967 57.6107 34.1044 55.3317 30.935C51.543 25.7841 45.1041 23.1407 36.0209 23.0002H0V97.5234H33.5826C37.3655 97.5234 40.8809 97.1833 44.1136 96.5101Z"
        fill="#171717" />
</svg>
