<svg fill="none" height="120" viewBox="0 0 120 120" width="120" xmlns="http://www.w3.org/2000/svg">
    <path
        d="M73.9115 56.841C72.6969 54.027 71.4308 51.2205 70.0774 48.4422C81.6233 43.4408 90.9029 36.6454 97.8209 28.033C104.564 36.0036 108.799 46.1274 109.426 57.2054C96.5509 55.0983 84.7112 54.9835 73.9115 56.841ZM87.5094 101.198C85.3224 89.4384 82.1115 77.9357 77.9123 66.7156C87.2911 65.3943 97.6145 65.7357 108.906 67.6999C106.72 81.6273 98.7696 93.6614 87.5094 101.198ZM59.9999 109.565C48.5334 109.565 37.9917 105.62 29.5852 99.0506C39.4245 83.6071 51.9984 73.5575 67.5689 68.9184C72.2048 81.0165 75.6182 93.463 77.7892 106.215C72.2524 108.35 66.275 109.565 59.9999 109.565ZM10.4346 59.9961C10.4346 59.5714 10.4941 59.151 10.5021 58.7216C29.74 58.6938 46.3425 56.4826 60.25 52.1092C61.413 54.4826 62.5283 56.8688 63.5999 59.2705C46.7037 64.5525 32.7803 75.3761 21.917 91.6694C14.7569 83.0752 10.4346 72.0381 10.4346 59.9961ZM37.6384 15.825C44.2985 24.5366 50.1924 33.5182 55.3244 42.7355C43.1712 46.3104 28.6684 48.1477 11.8992 48.264C15.3641 34.0858 24.9097 22.3025 37.6384 15.825ZM59.9999 10.4342C71.3752 10.4342 81.8416 14.3287 90.2163 20.797C84.1953 28.5644 75.8761 34.7089 65.2828 39.1943C60.2064 29.8901 54.3997 20.8172 47.8468 12.0107C51.7365 11.0185 55.8007 10.4342 59.9999 10.4342ZM59.9999 2.74802e-05C26.8624 2.74802e-05 0 26.8621 0 60.0036C0 93.1375 26.8624 120 59.9999 120C93.1375 120 120 93.1375 120 60.0036C120 26.8621 93.1375 2.74802e-05 59.9999 2.74802e-05Z"
        fill="#171717" />
</svg>
