<svg fill="none" height="120" viewBox="0 0 120 120" width="120" xmlns="http://www.w3.org/2000/svg">
    <path
        d="M120 57.6244H105.82V42.8409H96.7741V57.6244H82.5938V67.0553H96.7741V81.8389H105.82V67.0553H120V57.6244Z"
        fill="#171717" />
    <path
        d="M70.6291 57.1984H36.2772L36.3166 67.4553H59.4784C56.7391 79.9475 48.2847 87.6028 36.9369 87.6028C22.0538 87.6028 9.98892 75.0247 9.98892 59.5084C9.98892 43.9922 22.0538 31.414 36.9369 31.414C44.0145 31.414 50.4503 34.2624 55.2584 38.9124L62.8594 32.0831C56.1905 25.2315 47.0406 21.0001 36.9369 21.0001C16.5358 21.0001 0 38.2395 0 59.5084C0 80.7774 16.5358 98.0205 36.9369 98.0205C56.5276 98.0205 70.6864 82.4407 70.6864 61.1718L70.6291 57.1984Z"
        fill="#171717" />
</svg>
