<svg fill="none" height="120" viewBox="0 0 120 120" width="120" xmlns="http://www.w3.org/2000/svg">
    <path
        d="M60.0004 3.10258e-06C43.7061 3.10258e-06 41.6619 0.0692367 35.2614 0.359961C28.8747 0.650686 24.5153 1.66588 20.6976 3.15181C16.7516 4.68388 13.406 6.73279 10.0691 10.0692C6.73458 13.4056 4.68291 16.7559 3.15085 20.6968C1.66724 24.5178 0.652498 28.8786 0.362237 35.2607C0.0682843 41.6613 0 43.7056 0 60C0 76.2944 0.0682843 78.3387 0.362237 84.7393C0.652498 91.126 1.66724 95.4868 3.15085 99.3031C4.68291 103.249 6.73458 106.594 10.0691 109.931C13.406 113.267 16.7516 115.321 20.6976 116.853C24.5153 118.334 28.8747 119.349 35.2614 119.64C41.6619 119.931 43.7061 120 60.0004 120C76.2947 120 78.3391 119.931 84.7396 119.64C91.1262 119.349 95.487 118.334 99.3034 116.853C103.249 115.321 106.594 113.267 109.931 109.931C113.267 106.594 115.316 103.249 116.853 99.3031C118.334 95.4868 119.349 91.126 119.64 84.7393C119.931 78.3387 120 76.2944 120 60C120 43.7056 119.931 41.6613 119.64 35.2607C119.349 28.8786 118.334 24.5178 116.853 20.6968C115.316 16.7559 113.267 13.4056 109.931 10.0692C106.594 6.73279 103.249 4.68388 99.3034 3.15181C95.487 1.66588 91.1262 0.650686 84.7396 0.359961C78.3391 0.0692367 76.2947 3.10258e-06 60.0004 3.10258e-06ZM60.0004 10.8122C76.0225 10.8122 77.9191 10.8721 84.2458 11.1583C90.0925 11.4259 93.272 12.4043 95.3855 13.2257C98.1866 14.3147 100.185 15.6161 102.284 17.7157C104.384 19.8154 105.685 21.8136 106.774 24.6147C107.596 26.7282 108.574 29.9077 108.842 35.7545C109.128 42.0812 109.188 43.9779 109.188 60C109.188 76.0221 109.128 77.9187 108.842 84.2455C108.574 90.0969 107.596 93.2718 106.774 95.3853C105.685 98.191 104.384 100.185 102.284 102.289C100.185 104.384 98.1866 105.685 95.3855 106.774C93.272 107.596 90.0925 108.574 84.2458 108.842C77.9191 109.128 76.0225 109.192 60.0004 109.192C43.9784 109.192 42.0818 109.128 35.7552 108.842C29.9038 108.574 26.7289 107.596 24.6145 106.774C21.8134 105.685 19.8139 104.384 17.7142 102.289C15.6159 100.185 14.3146 98.191 13.2255 95.3853C12.4055 93.2718 11.4286 90.0969 11.16 84.2455C10.8716 77.9187 10.8121 76.0221 10.8121 60C10.8121 43.9779 10.8716 42.0812 11.16 35.7545C11.4286 29.9077 12.4055 26.7282 13.2255 24.6147C14.3146 21.8136 15.6159 19.8154 17.7142 17.7157C19.8139 15.6161 21.8134 14.3147 24.6145 13.2257C26.7289 12.4043 29.9038 11.4259 35.7552 11.1583C42.0818 10.8721 43.9784 10.8122 60.0004 10.8122Z"
        fill="#171717" />
    <path
        d="M60.0004 79.9998C48.953 79.9998 40.0006 71.0474 40.0006 59.9998C40.0006 48.9523 48.953 39.9998 60.0004 39.9998C71.0479 39.9998 80.0003 48.9523 80.0003 59.9998C80.0003 71.0474 71.0479 79.9998 60.0004 79.9998ZM60.0004 29.1923C42.9862 29.1923 29.1885 42.9855 29.1885 59.9998C29.1885 77.0187 42.9862 90.812 60.0004 90.812C77.0146 90.812 90.8124 77.0187 90.8124 59.9998C90.8124 42.9855 77.0146 29.1923 60.0004 29.1923Z"
        fill="#171717" />
    <path
        d="M99.2294 27.9735C99.2294 31.9467 96.0038 35.1724 92.0306 35.1724C88.0528 35.1724 84.8271 31.9467 84.8271 27.9735C84.8271 23.9956 88.0528 20.77 92.0306 20.77C96.0038 20.77 99.2294 23.9956 99.2294 27.9735Z"
        fill="#171717" />
</svg>
