<svg fill="none" height="120" viewBox="0 0 120 120" width="120" xmlns="http://www.w3.org/2000/svg">
    <path
        d="M66.1984 76.5046C66.1984 66.1956 70.9416 60.0524 80.0346 60.0524C88.3826 60.0524 92.3992 65.9495 92.3992 76.5046C92.3992 87.0681 92.3992 115 92.3992 115H115C115 115 115 88.2119 115 68.5673C115 48.9251 103.861 39.4287 88.3085 39.4287C72.7463 39.4287 66.1984 51.5485 66.1984 51.5485V41.6673H44.4121V115H66.1984C66.1984 115 66.1984 87.8035 66.1984 76.5046Z"
        fill="#171717" />
    <path d="M7.17969 115H29.8914V41.6673H7.17969V115Z" fill="#171717" />
    <path
        d="M18.429 32.0662C25.8468 32.0662 31.858 26.003 31.858 18.5324C31.858 11.0581 25.8468 5.00007 18.429 5.00007C11.0065 5.00007 5 11.0581 5 18.5324C5 26.003 11.0065 32.0662 18.429 32.0662Z"
        fill="#171717" />
</svg>
