<svg fill="none" height="120" viewBox="0 0 120 120" width="120" xmlns="http://www.w3.org/2000/svg">
    <path
        d="M28.1155 69.3859C29.6916 70.0331 31.1087 69.4157 31.5689 67.6701C31.8799 66.4583 32.6383 63.4042 32.9707 62.1341C33.4351 60.3999 33.2561 59.7991 31.9822 58.2964C29.2054 55.019 27.4329 50.7748 27.4329 44.7714C27.4329 27.3538 40.4654 11.7589 61.3687 11.7589C79.8776 11.7589 90.0481 23.0717 90.0481 38.1808C90.0481 58.0531 81.2538 74.8235 68.1945 74.8235C60.9853 74.8235 55.5869 68.8614 57.3125 61.5499C59.3917 52.8153 63.4011 43.3952 63.4011 37.0888C63.4011 31.4433 60.3718 26.7398 54.1042 26.7398C46.733 26.7398 40.8105 34.3674 40.8105 44.5801C40.8105 51.0863 43.0133 55.4885 43.0133 55.4885C43.0133 55.4885 35.4675 87.4525 34.1467 93.0498C31.5092 104.193 33.7461 117.86 33.9379 119.242C34.0529 120.064 35.1011 120.251 35.574 119.638C36.26 118.751 45.0372 107.908 48.0197 97.081C48.8676 94.0136 52.8685 78.1371 52.8685 78.1371C55.2631 82.706 62.2635 86.7234 69.7029 86.7234C91.8674 86.7234 106.899 66.5265 106.899 39.4838C106.899 19.0405 89.5836 -3.17152e-06 63.2606 -3.17152e-06C30.5122 -3.17152e-06 14 23.4811 14 43.059C14 54.9159 18.4887 65.4613 28.1155 69.3859Z"
        fill="#171717" />
</svg>
