<svg fill="none" height="120" viewBox="0 0 120 120" width="120" xmlns="http://www.w3.org/2000/svg">
    <path
        d="M95.3976 53.4012C76.2004 42.0017 44.1026 40.8012 25.8011 46.4966C22.8021 47.4011 19.7988 45.6008 18.903 42.9011C17.9985 39.9019 19.7988 36.9027 22.4992 35.9987C43.7996 29.7013 78.9008 30.8996 101.097 44.0994C103.797 45.6008 104.698 49.1985 103.2 51.8982C101.699 54.001 98.098 54.9021 95.3976 53.4012ZM94.8004 70.2C93.2987 72.2998 90.5983 73.2009 88.4994 71.703C72.3012 61.7997 47.6988 58.8005 28.8002 64.8002C26.4027 65.4004 23.7023 64.1986 23.1007 61.7997C22.4992 59.3991 23.7023 56.6977 26.0998 56.1009C48.0017 49.501 74.9973 52.7992 93.6016 64.1986C95.3976 65.1031 96.2977 68.1019 94.8004 70.2ZM87.5993 86.7032C86.4005 88.5036 84.3016 89.1004 82.5013 87.9016C68.402 79.2023 50.7021 77.4019 29.7003 82.201C27.6014 82.7995 25.8011 81.3017 25.1996 79.5013C24.6024 77.4019 26.0997 75.6011 27.9 75.0013C50.7021 69.9022 70.5009 72.0003 86.0976 81.5994C88.2008 82.5005 88.4994 84.9028 87.5993 86.7032ZM59.9978 -4.04182e-06C26.8657 -4.04182e-06 0 26.8627 0 60.0011C0 93.1373 26.8657 120 59.9978 120C93.1386 120 120 93.1373 120 60.0011C120 26.8627 93.1386 -4.04182e-06 59.9978 -4.04182e-06Z"
        fill="#171717" />
</svg>
