<svg fill="none" height="120" viewBox="0 0 120 120" width="120" xmlns="http://www.w3.org/2000/svg">
    <path
        d="M60.5574 20.3292C78.6153 21.3889 89.1915 29.3327 90.2173 36.7508C90.7218 41.5959 87.5002 45.3643 81.9048 45.3643C73.7364 45.3643 72.9055 34.4788 58.8407 34.4788C52.495 34.4788 47.1412 37.1154 47.1412 42.8337C47.1412 54.7917 92.2054 47.8484 92.2054 74.1722C92.2054 89.3476 80.0608 99.2879 61.9309 99.2879C45.984 99.2879 29.9565 92.0605 30.037 79.615C30.0625 75.8593 32.8644 72.413 36.5904 72.413C45.9839 72.413 45.8949 86.3676 60.8499 86.3676C71.337 86.3676 74.9191 80.645 74.9191 76.6562C74.9191 62.2523 29.5836 71.082 29.5836 43.9909C29.5836 29.3327 41.6305 19.2186 60.5574 20.3292ZM3.96345 60.1116C3.96345 91.0346 29.0282 116.104 59.9555 116.104C63.5459 116.104 67.0515 115.756 70.4469 115.108C75.3725 118.083 81.146 119.8 87.3221 119.8C105.367 119.796 120 105.167 120 87.1179C120 80.7891 118.194 74.8886 115.083 69.8781C115.638 66.7074 115.948 63.4434 115.948 60.1116C115.948 29.1886 90.8743 4.12375 59.9555 4.12375C56.4329 4.12375 52.9909 4.46286 49.6421 5.08175C44.6995 2.0721 38.8879 0.338352 32.6779 0.338352C14.6285 0.338352 0 14.9669 0 33.0163C0 39.3069 1.78468 45.1821 4.86215 50.1671C4.28142 53.3929 3.96345 56.7162 3.96345 60.1116Z"
        fill="#171717" />
</svg>
