<svg fill="none" height="120" viewBox="0 0 120 120" width="120" xmlns="http://www.w3.org/2000/svg">
    <path clip-rule="evenodd" d="M118.802 89.424V89.3983C118.776 89.3684 118.746 89.3684 118.691 89.3127C118.691 89.3127 118.691 89.3127 118.665 89.3127C117.231 88.4056 115.768 88.2686 114.856 87.9348C114.831 87.9348 114.805 87.9349 114.805 87.9092C108.571 85.9494 103.196 81.7045 99.1693 76.5182C96.9356 73.6255 95.0614 70.5061 93.8204 67.1726C93.8204 67.1427 93.8204 67.1427 93.8204 67.117C93.324 65.6835 93.2984 64.0831 94.013 63.116C94.013 63.116 94.0387 63.116 94.0387 63.0904C95.1726 61.49 97.2395 60.4715 99.4175 59.6713C99.4475 59.6713 99.4474 59.6713 99.4474 59.6713C101.899 58.8155 104.548 57.8527 106.726 55.9228C106.752 55.9228 106.752 55.8929 106.782 55.8929C107.111 55.589 107.526 55.1783 107.826 54.545C107.882 54.4038 107.967 54.2411 107.993 54.0486C108.16 53.4666 108.16 52.752 107.856 52.1444C107.856 52.1187 107.856 52.1187 107.856 52.1187C107.223 50.8478 106.144 50.1589 105.318 49.6881H105.288C103.941 48.8922 102.34 48.8366 100.937 49.3031H100.907C99.4175 49.7438 98.1766 50.2958 97.0469 50.437C97.0212 50.437 96.9913 50.437 96.9656 50.4627C95.3652 50.7366 93.7948 50.7922 92.5795 50.3514C92.5538 50.1845 92.5538 49.8294 92.4981 49.3886H92.5238C92.4126 46.7399 92.6608 44.0098 92.6908 41.1685C92.6908 41.1685 92.6908 41.1685 92.6908 41.1428C92.8277 36.8423 92.9946 32.4263 92.357 27.9632C92.357 27.9332 92.357 27.9075 92.357 27.9075C90.9535 20.3806 86.1266 13.8977 80.0032 9.59719C75.5657 6.45633 70.2724 4.71898 64.8979 4.2226C63.0493 4.05572 61.2564 4.00013 59.4634 4.00013C52.2103 4.05576 44.6834 5.95995 38.8124 10.5643C34.4007 14.009 30.926 18.5876 28.7437 23.6883V23.7183C26.6512 28.9559 26.8438 34.5529 27.1177 39.7349C27.2846 43.3765 27.6996 46.9068 27.3658 50.2702C27.3401 50.3814 27.3402 50.437 27.3145 50.4883C25.6842 50.7922 23.8955 50.6809 22.1282 50.3514H22.1025C20.8872 50.1589 19.5907 49.6625 18.1316 49.2474C18.1016 49.2474 18.0759 49.2474 18.0459 49.2217C16.6424 48.9179 15.2345 49.3031 14.1861 50.1033C14.1605 50.1033 14.1306 50.1032 14.1306 50.1289C14.1049 50.1589 14.0792 50.1589 14.0792 50.1845C13.1934 50.7365 12.0081 51.7036 11.9525 53.3554C11.9268 53.4666 11.9525 53.5522 11.9525 53.6592C11.9824 53.6592 11.9525 53.6892 11.9824 53.6892C12.145 54.652 12.7527 55.3708 13.3047 55.8372C13.8567 56.3079 14.3531 56.6118 14.6569 56.8599C14.6826 56.8599 14.7125 56.8856 14.7382 56.9156C17.3869 58.6786 20.3096 59.4531 22.8728 60.4416C24.6357 61.2161 26.1548 62.4014 26.5143 63.9162C26.955 65.8204 26.1292 68.0242 25.0766 70.1509V70.1765C22.2096 75.8036 17.9646 80.7117 12.727 84.3233C9.96698 86.1975 6.88176 87.6054 3.65531 88.4569C3.62536 88.4569 3.56969 88.4869 3.51407 88.5126C2.85508 88.7607 1.28464 88.902 0.291883 90.3868C0.236255 90.4981 0.180672 90.6093 0.125044 90.7462C-0.208727 91.6834 0.18066 92.706 0.647083 93.2837C1.09211 93.8101 1.58847 94.1395 2.02494 94.3578C2.0549 94.3578 2.08055 94.3878 2.1105 94.3878C4.81062 95.9582 7.78892 96.6214 10.4933 97.3104C10.519 97.3104 10.519 97.3361 10.519 97.3361C12.4789 97.7512 14.2975 97.9993 15.7609 98.6326C15.8123 98.7439 15.9792 99.2403 16.3087 100.066C16.805 101.555 17.0275 103.293 17.5795 105.141C17.7464 105.638 18.1871 106.053 18.7092 106.164C19.9501 106.438 20.6134 106.023 20.7246 105.997C20.776 105.997 20.8317 105.997 20.8873 105.997C25.4103 105.197 29.959 104.508 34.1226 105.526C38.4787 106.682 42.2828 109.69 46.5577 112.253V112.283C49.399 114.046 52.6811 115.783 56.4852 115.92C56.4852 115.92 56.4852 115.92 56.5152 115.92C59.3822 116.087 62.1636 115.895 64.9236 115.728C64.9493 115.728 64.9493 115.728 64.9793 115.728C67.3199 115.509 69.5836 114.709 71.5948 113.468C71.6247 113.438 71.6504 113.413 71.6803 113.413C76.1734 110.849 80.1444 107.79 84.5305 105.856H84.5562C85.9597 105.359 87.7526 105.389 89.7124 105.252C89.7381 105.252 89.7681 105.252 89.7681 105.252C93.4054 105.141 97.0212 105.334 100.633 105.804C100.74 105.83 100.881 105.83 100.988 105.804C101.484 105.749 101.981 105.415 102.229 105.111C102.507 104.812 102.563 104.534 102.614 104.341C102.725 103.982 102.811 103.819 102.644 104.123C102.7 104.011 102.755 103.926 102.781 103.819C103.444 101.641 103.804 99.681 104.878 98.47C105.344 97.9993 106.174 97.7768 107.111 97.7768C107.167 97.7768 107.248 97.7768 107.304 97.7768C110.449 97.4216 113.26 96.292 115.935 95.3506C115.965 95.3249 116.016 95.3249 116.046 95.3249C117.039 94.8841 118.528 94.3877 119.546 92.9799C119.546 92.9799 119.546 92.9799 119.546 92.9543C120.402 91.769 119.987 90.1386 118.802 89.424Z"
        fill="#171717"
        fill-rule="evenodd" />
</svg>
