<svg fill="none" height="120" viewBox="0 0 120 120" width="120" xmlns="http://www.w3.org/2000/svg">
    <path
        d="M36.136 91.2873C36.136 96.7666 36.7116 100.947 37.8584 103.834C39.0051 106.712 41.0709 109.443 44.047 112.009C47.0187 114.565 50.6107 116.542 54.8272 117.921C59.0438 119.304 63.8849 120 69.3687 120C74.1965 120 78.6897 119.509 82.8438 118.55C86.9979 117.573 91.6384 115.886 96.7652 113.472V94.6025C90.7549 98.5558 84.7134 100.528 78.6362 100.528C75.2228 100.528 72.1798 99.7338 69.5294 98.1364C67.5259 96.9629 66.1561 95.3834 65.4154 93.4112C64.6792 91.4345 64.3134 86.9681 64.3134 80.0119V49.2333H92.8074V30.3949H64.3134V-3.51555e-06H47.3177C46.5458 6.18874 45.1537 11.2754 43.128 15.2778C41.1022 19.2801 38.4161 22.7069 35.0652 25.5625C31.7187 28.4137 27.6984 30.609 23 32.1395V49.2333H36.136V91.2873Z"
        fill="#171717" />
</svg>
