<svg fill="none" height="120" viewBox="0 0 120 120" width="120" xmlns="http://www.w3.org/2000/svg">
    <path
        d="M0 97.459C10.894 104.449 23.8347 108.524 37.7395 108.524C83.4477 108.524 109.272 69.9153 107.715 35.2863C112.525 31.8196 116.7 27.4838 120 22.5402C115.584 24.5015 110.839 25.8265 105.863 26.4153C110.944 23.376 114.847 18.5511 116.685 12.7955C111.927 15.6163 106.656 17.6678 101.052 18.7743C96.5594 13.9874 90.1626 11.0004 83.0773 11.0004C67.1922 11.0004 55.5099 25.8312 59.1001 41.2319C38.6371 40.2062 20.4963 30.4044 8.35806 15.5071C1.9043 26.572 5.0101 41.0515 15.9753 48.379C11.9387 48.2508 8.13488 47.1395 4.82015 45.297C4.55421 56.7038 12.7271 67.3699 24.5661 69.7491C21.0994 70.6942 17.305 70.9078 13.4536 70.167C16.5784 79.9545 25.6726 87.0684 36.4478 87.2678C26.1 95.3837 13.0595 99.0071 0 97.459Z"
        fill="#171717" />
</svg>
