<svg fill="none" height="120" viewBox="0 0 120 120" width="120" xmlns="http://www.w3.org/2000/svg">
    <path
        d="M102.511 8.02197C85.8788 7.48659 74.6136 16.8731 68.711 36.2006C71.7582 34.8934 74.7206 34.2277 77.5938 34.2277C83.6971 34.2277 86.3918 37.668 85.6735 44.5203C85.3166 48.6664 82.6219 54.7067 77.5938 62.6486C72.5612 70.5851 68.7914 74.5518 66.2796 74.5518C63.0405 74.5518 60.0826 68.4396 57.3924 56.2004C56.4822 52.6103 54.8716 43.4415 52.5382 28.6928C50.3789 15.0171 44.637 8.63361 35.2947 9.53438C31.3418 9.89532 25.4125 13.4873 17.5113 20.3084C11.7604 25.5189 5.92483 30.7299 0 35.9374L5.64818 43.21C11.0242 39.449 14.1696 37.5528 15.0619 37.5528C19.1843 37.5528 23.0301 44.022 26.6215 56.9375C29.8516 68.7831 33.0818 80.6181 36.3119 92.469C41.1437 105.39 47.064 111.845 54.0595 111.845C65.3515 111.845 79.1553 101.24 95.4709 80.0255C111.247 59.712 119.407 43.7137 119.942 32.0282C120.651 16.3872 114.843 8.39316 102.511 8.02197Z"
        fill="#171717" />
</svg>
