<svg fill="none" height="120" viewBox="0 0 120 120" width="120" xmlns="http://www.w3.org/2000/svg">
    <path clip-rule="evenodd" d="M61.0791 107.59C51.0115 107.59 41.6633 104.615 33.8324 99.4589L14.8085 105.523L20.9839 87.2698C15.0576 79.1622 11.5572 69.2099 11.5572 58.455C11.5572 56.8547 11.6402 55.259 11.8016 53.6864C14.2321 28.8147 35.4051 9.32051 61.0791 9.32051C87.0807 9.32051 108.447 29.3128 110.43 54.6226C110.541 55.8908 110.596 57.1591 110.596 58.455C110.596 85.5588 88.372 107.59 61.0791 107.59ZM119.945 56.9654C119.147 25.3697 93.1176 1.29949e-06 61.0791 1.29949e-06C29.4235 1.29949e-06 3.61561 24.7886 2.23667 55.8908C2.209 56.744 2.18139 57.6019 2.18139 58.455C2.18139 69.5142 5.26673 79.8263 10.6165 88.6487L0 120L32.6195 109.633C41.0592 114.263 50.7625 116.91 61.0791 116.91C93.6157 116.91 119.972 90.7425 119.972 58.455C119.972 57.957 119.972 57.4635 119.945 56.9654Z"
        fill="#171717"
        fill-rule="evenodd" />
    <path clip-rule="evenodd" d="M88.0716 70.2566C86.6096 69.5417 79.5211 66.0644 78.1975 65.5986C76.8739 65.1006 75.9102 64.8792 74.9463 66.3134C73.9778 67.7477 71.1968 70.976 70.3666 71.9122C69.5135 72.8761 68.688 72.9868 67.2261 72.272C65.7918 71.5525 61.1338 70.0629 55.618 65.1559C51.3428 61.3788 48.419 56.6932 47.5934 55.2589C46.7679 53.8246 47.5104 53.0498 48.2252 52.335C48.8893 51.6755 49.6595 50.6516 50.4066 49.8261C50.6003 49.5771 50.7618 49.3557 50.9278 49.1343C51.2598 48.6132 51.5089 48.1152 51.8363 47.428C52.3344 46.4641 52.09 45.634 51.7302 44.9191C51.3705 44.1997 48.4743 37.1436 47.2614 34.275C46.0762 31.4065 44.8632 31.8999 44.01 31.8999C43.1799 31.8999 42.216 31.7662 41.2522 31.7662C40.2883 31.7662 38.7156 32.1259 37.392 33.5555C36.0684 34.9898 32.3467 38.4672 32.3467 45.5233C32.3467 47.1789 32.6511 48.8346 33.0892 50.4026C34.5512 55.4526 37.6964 59.6125 38.2452 60.3319C38.9601 61.2681 48.2252 76.2105 62.8955 81.9753C77.5934 87.6847 77.5935 85.78 80.2407 85.531C82.8879 85.3096 88.7863 82.0859 89.9716 78.7239C91.1845 75.3849 91.1845 72.5164 90.8248 71.9122C90.4697 71.3311 89.5012 70.976 88.0716 70.2566Z"
        fill="#171717"
        fill-rule="evenodd" />
</svg>
