<svg fill="none" height="120" viewBox="0 0 120 120" width="120" xmlns="http://www.w3.org/2000/svg">
    <path
        d="M117.493 32.2013C116.111 27.0048 112.046 22.911 106.883 21.5228C97.5251 18.9999 59.9984 19 59.9984 19C59.9984 19 22.4749 18.9999 13.117 21.5228C7.95426 22.911 3.88543 27.0048 2.50703 32.2013C-2.15574e-05 41.6203 0 61.2723 0 61.2723C0 61.2723 -2.15574e-05 80.9241 2.50703 90.3418C3.88543 95.5383 7.95426 99.6333 13.117 101.02C22.4749 103.543 59.9984 103.543 59.9984 103.543C59.9984 103.543 97.5251 103.543 106.883 101.02C112.046 99.6333 116.111 95.5383 117.493 90.3418C120 80.9241 120 61.2723 120 61.2723C120 61.2723 120 41.6203 117.493 32.2013Z"
        fill="#171717" />
    <path d="M47.7256 79.1145V43.4281L79.0905 61.2721L47.7256 79.1145Z" fill="white" />
</svg>
